<svg xmlns="http://www.w3.org/2000/svg" xmlns:xlink="http://www.w3.org/1999/xlink" preserveAspectRatio="xMidYMid" width="51" height="60" viewBox="0 0 51 60">
  <defs>
    <style>
      .cls-1 {
        fill: #1e1e1e;
        fill-rule: evenodd;
      }
    </style>
  </defs>
  <path d="M41.106,53.234 L41.142,54.245 L40.121,55.779 L39.123,54.101 L38.987,51.785 L37.009,50.432 L36.724,48.969 L38.078,48.921 L38.851,49.454 L37.270,22.494 L26.795,32.710 L16.865,24.293 L16.842,60.000 L6.808,53.096 L6.794,54.652 L5.962,55.779 L5.463,54.365 L5.471,52.177 L2.969,50.456 L2.637,48.921 L4.157,48.993 L5.480,49.890 L5.510,41.422 L1.448,4.370 L0.903,4.412 L-0.000,3.933 L0.689,3.237 L1.317,3.169 L1.116,1.343 L1.805,-0.000 L2.637,1.415 L2.786,3.008 L15.369,1.631 L27.151,12.614 L35.964,1.631 L47.176,3.693 L51.000,7.866 L51.000,60.000 L41.106,53.234 ZM49.456,8.058 L46.724,5.228 L36.866,3.549 L26.248,16.763 L24.704,16.787 L24.728,15.156 L25.773,14.077 L14.537,3.357 L2.903,4.258 L5.543,32.397 L5.606,14.772 L6.366,13.525 L7.150,14.628 L6.828,50.804 L15.084,56.403 L14.514,17.026 L26.700,27.434 L39.741,15.156 L41.024,50.955 L49.503,56.811 L49.456,8.058 Z" class="cls-1"/>
</svg>
