<svg xmlns="http://www.w3.org/2000/svg" xmlns:xlink="http://www.w3.org/1999/xlink" preserveAspectRatio="xMidYMid" width="60" height="49" viewBox="0 0 60 49">
  <defs>
    <style>
      .cls-1 {
        fill: #1e1e1e;
        fill-rule: evenodd;
      }
    </style>
  </defs>
  <path d="M60.000,1.581 L52.105,4.742 C52.105,4.742 49.373,-0.000 42.632,-0.000 C35.890,-0.000 30.000,6.749 30.000,11.065 C30.000,14.251 30.000,15.806 30.000,15.806 C30.000,15.806 22.707,14.728 15.789,11.065 C8.872,7.401 4.737,1.581 4.737,1.581 C4.737,1.581 0.301,8.530 3.158,12.645 C6.015,16.760 7.895,18.968 7.895,18.968 C7.895,18.968 4.160,18.642 1.579,17.387 C5.138,26.419 12.632,31.613 12.632,31.613 C12.632,31.613 10.150,31.387 7.895,30.032 C8.521,35.828 18.947,37.935 18.947,37.935 C18.947,37.935 12.907,44.885 -0.000,42.677 C6.266,47.369 10.326,49.000 18.947,49.000 C27.569,49.000 36.917,45.939 45.789,36.355 C54.317,27.143 55.263,19.620 55.263,15.806 C55.263,11.993 55.263,11.065 55.263,11.065 L60.000,6.323 L53.684,7.903 L60.000,1.581 Z" class="cls-1"/>
</svg>
