<svg xmlns="http://www.w3.org/2000/svg" xmlns:xlink="http://www.w3.org/1999/xlink" preserveAspectRatio="xMidYMid" width="60" height="60" viewBox="0 0 60 60">
  <defs>
    <style>
      .cls-1 {
        fill: #4862a3;
        fill-rule: evenodd;
      }
    </style>
  </defs>
  <path d="M6.667,-0.000 C13.493,-0.000 46.773,-0.000 53.333,-0.000 C59.894,-0.000 60.000,-0.160 60.000,6.667 C60.000,13.493 60.000,46.684 60.000,53.333 C60.000,59.982 59.982,60.000 53.333,60.000 C46.684,60.000 41.667,60.000 41.667,60.000 L41.667,36.667 L48.333,36.667 L50.000,28.333 L41.667,28.333 C41.667,28.333 41.667,26.370 41.667,23.333 C41.667,20.297 42.952,18.333 45.000,18.333 C47.048,18.333 50.000,18.333 50.000,18.333 L50.000,11.667 C50.000,11.667 45.410,11.667 41.667,11.667 C37.924,11.667 33.333,13.644 33.333,20.000 C33.333,26.356 33.333,28.333 33.333,28.333 L25.000,28.333 L25.000,36.667 L33.333,36.667 L33.333,60.000 C33.333,60.000 13.050,60.000 6.667,60.000 C0.284,60.000 -0.000,59.894 -0.000,53.333 C-0.000,46.773 -0.000,13.227 -0.000,6.667 C-0.000,0.106 -0.160,-0.000 6.667,-0.000 Z" class="cls-1"/>
</svg>
