<svg xmlns="http://www.w3.org/2000/svg" xmlns:xlink="http://www.w3.org/1999/xlink" preserveAspectRatio="xMidYMid" width="16" height="26" viewBox="0 0 16 26">
  <defs>
    <style>
      .cls-1 {
        fill: #1e1e1e;
        fill-rule: evenodd;
      }
    </style>
  </defs>
  <path d="M14.609,26.000 L1.391,26.000 C0.579,26.000 -0.000,25.586 -0.000,24.632 L-0.000,1.368 C-0.000,0.414 0.579,-0.000 1.391,-0.000 L14.609,-0.000 C15.421,-0.000 16.000,0.414 16.000,1.368 L16.000,24.632 C16.000,25.586 15.421,26.000 14.609,26.000 ZM3.000,1.000 L2.000,1.000 L2.000,2.000 L3.000,2.000 L3.000,1.000 ZM12.000,1.000 L5.000,1.000 L5.000,2.000 L12.000,2.000 L12.000,1.000 ZM14.000,3.000 L2.000,3.000 L2.000,24.000 L14.000,24.000 L14.000,3.000 Z" class="cls-1"/>
</svg>
