<svg xmlns="http://www.w3.org/2000/svg" xmlns:xlink="http://www.w3.org/1999/xlink" preserveAspectRatio="xMidYMid" width="26" height="21" viewBox="0 0 26 21">
  <defs>
    <style>
      .cls-1 {
        fill: #1e1e1e;
        fill-rule: evenodd;
      }
    </style>
  </defs>
  <path d="M26.000,0.677 L22.579,2.032 C22.579,2.032 21.395,-0.000 18.474,-0.000 C15.552,-0.000 13.000,2.892 13.000,4.742 C13.000,6.108 13.000,6.774 13.000,6.774 C13.000,6.774 9.840,6.312 6.842,4.742 C3.845,3.172 2.053,0.677 2.053,0.677 C2.053,0.677 0.130,3.656 1.368,5.419 C2.607,7.183 3.421,8.129 3.421,8.129 C3.421,8.129 1.803,7.989 0.684,7.452 C2.226,11.323 5.474,13.548 5.474,13.548 C5.474,13.548 4.398,13.452 3.421,12.871 C3.693,15.355 8.211,16.258 8.211,16.258 C8.211,16.258 5.593,19.237 -0.000,18.290 C2.715,20.301 4.475,21.000 8.211,21.000 C11.947,21.000 15.997,19.688 19.842,15.581 C23.537,11.633 23.947,8.409 23.947,6.774 C23.947,5.140 23.947,4.742 23.947,4.742 L26.000,2.710 L23.263,3.387 L26.000,0.677 Z" class="cls-1"/>
</svg>
