<?xml version="1.0" encoding="utf-8"?>
<!-- Generator: Adobe Illustrator 22.0.1, SVG Export Plug-In . SVG Version: 6.00 Build 0)  -->
<svg version="1.1" id="Shape_1_copy_1_" xmlns="http://www.w3.org/2000/svg" xmlns:xlink="http://www.w3.org/1999/xlink" x="0px"
	 y="0px" viewBox="0 0 6.5 5" style="enable-background:new 0 0 6.5 5;" xml:space="preserve">
<style type="text/css">
	.st0{fill-rule:evenodd;clip-rule:evenodd;}
</style>
<path class="st0" d="M5.6,0.7C5,0.1,4.1,0,4.1,0L4.1,0.2c0,0,0.9,0.2,1.4,0.8C5,0.7,4.2,0.3,3.3,0.3S1.5,0.7,1,0.9
	c0.5-0.6,1.4-0.8,1.4-0.8L2.3,0c0,0-0.8,0.1-1.4,0.7C0.4,1.5,0.1,2.5,0,4.1C0.7,5,1.9,5,1.9,5l0.2-0.3c0,0-0.9-0.4-1.3-0.9
	C1.2,4,2,4.6,3.2,4.6s2-0.5,2.3-0.8C5.2,4.4,4.3,4.7,4.3,4.7L4.6,5c0,0,1.2-0.1,1.9-1C6.4,2.5,6.1,1.5,5.6,0.7z M2.3,3.4
	C2,3.4,1.8,3.2,1.8,2.8S2,2.2,2.3,2.2h0c0.3,0,0.5,0.3,0.5,0.6C2.8,3.2,2.6,3.4,2.3,3.4C2.3,3.4,2.3,3.4,2.3,3.4z M4.2,3.4
	C4.2,3.4,4.2,3.4,4.2,3.4c-0.3,0-0.5-0.3-0.5-0.6c0-0.3,0.2-0.6,0.5-0.6h0c0.3,0,0.5,0.3,0.5,0.6S4.5,3.4,4.2,3.4z"/>
</svg>
