<svg xmlns="http://www.w3.org/2000/svg" xmlns:xlink="http://www.w3.org/1999/xlink" preserveAspectRatio="xMidYMid" width="25" height="25" viewBox="0 0 25 25">
  <defs>
    <style>
      .cls-1 {
        fill: #1e1e1e;
        fill-rule: evenodd;
      }
    </style>
  </defs>
  <path d="M-0.000,25.000 L-0.000,-0.000 L25.000,-0.000 L25.000,25.000 L-0.000,25.000 ZM24.000,1.000 L1.000,1.000 L1.000,24.000 L24.000,24.000 L24.000,1.000 ZM7.000,2.000 L18.000,2.000 C18.584,2.000 19.000,2.302 19.000,3.000 L19.000,22.000 C19.000,22.698 18.584,23.000 18.000,23.000 L7.000,23.000 C6.416,23.000 6.000,22.698 6.000,22.000 L6.000,3.000 C6.000,2.302 6.416,2.000 7.000,2.000 ZM15.000,3.000 L11.000,3.000 L11.000,4.000 L15.000,4.000 L15.000,3.000 ZM8.000,21.000 L17.000,21.000 L17.000,5.000 L8.000,5.000 L8.000,21.000 ZM8.000,4.000 L9.000,4.000 L9.000,3.000 L8.000,3.000 L8.000,4.000 Z" class="cls-1"/>
</svg>
