<svg xmlns="http://www.w3.org/2000/svg" xmlns:xlink="http://www.w3.org/1999/xlink" preserveAspectRatio="xMidYMid" width="25" height="25" viewBox="0 0 25 25">
  <defs>
    <style>
      .cls-1 {
        fill: #1e1e1e;
        fill-rule: evenodd;
      }
    </style>
  </defs>
  <path d="M-0.000,25.000 L-0.000,-0.000 L25.000,-0.000 L25.000,25.000 L-0.000,25.000 ZM24.000,1.000 L1.000,1.000 L1.000,24.000 L24.000,24.000 L24.000,1.000 ZM22.000,19.000 L3.000,19.000 L3.000,5.000 L22.000,5.000 L22.000,19.000 ZM6.000,18.000 L11.000,12.000 L10.000,11.500 L4.000,18.000 L6.000,18.000 ZM4.000,6.000 L12.500,12.000 L21.000,6.000 L4.000,6.000 ZM15.000,11.500 L14.000,12.000 L19.000,18.000 L21.000,18.000 L15.000,11.500 Z" class="cls-1"/>
</svg>
