<svg xmlns="http://www.w3.org/2000/svg" xmlns:xlink="http://www.w3.org/1999/xlink" preserveAspectRatio="xMidYMid" width="100" height="95" viewBox="0 0 100 95">
  <defs>
    <style>

      .cls-2 {
        fill: #1e1e1e;
      }
    </style>
  </defs>
  <path d="M-0.000,94.994 C-0.000,94.994 -0.000,-0.000 -0.000,-0.000 C-0.000,-0.000 100.006,-0.000 100.006,-0.000 C100.006,-0.000 100.006,94.994 100.006,94.994 C100.006,94.994 -0.000,94.994 -0.000,94.994 ZM93.000,7.000 C93.000,7.000 7.000,7.000 7.000,7.000 C7.000,7.000 7.000,88.000 7.000,88.000 C7.000,88.000 93.000,88.000 93.000,88.000 C93.000,88.000 93.000,7.000 93.000,7.000 ZM38.817,22.101 C38.817,22.101 51.054,68.241 51.054,68.241 C51.054,68.241 43.023,68.241 43.023,68.241 C43.023,68.241 39.390,54.476 39.390,54.476 C39.390,54.476 26.770,54.476 26.770,54.476 C26.770,54.476 22.755,68.241 22.755,68.241 C22.755,68.241 16.062,68.241 16.062,68.241 C16.062,68.241 28.682,22.101 28.682,22.101 C28.682,22.101 38.817,22.101 38.817,22.101 ZM38.052,47.497 C38.052,47.497 33.271,31.794 33.271,31.794 C33.271,31.794 28.109,47.497 28.109,47.497 C28.109,47.497 38.052,47.497 38.052,47.497 ZM69.794,32.957 C77.854,33.225 81.266,42.701 81.266,52.150 C79.439,52.150 64.607,52.150 61.380,52.150 C61.380,55.300 62.313,62.425 71.515,62.425 C76.747,62.425 79.737,60.292 79.737,60.292 C79.737,60.292 79.737,66.108 79.737,66.108 C79.737,66.108 77.776,68.628 70.367,68.628 C58.108,68.628 54.496,59.267 54.496,51.271 C54.496,43.276 55.857,32.495 69.794,32.957 ZM74.383,47.303 C74.383,47.303 73.958,39.355 68.264,39.355 C62.569,39.355 61.380,47.303 61.380,47.303 C61.380,47.303 74.383,47.303 74.383,47.303 Z" id="path-1" class="cls-2" fill-rule="evenodd"/>
</svg>
