<svg xmlns="http://www.w3.org/2000/svg" xmlns:xlink="http://www.w3.org/1999/xlink" preserveAspectRatio="xMidYMid" width="100" height="95" viewBox="0 0 100 95">
  <defs>
    <style>

      .cls-2 {
        fill: #1e1e1e;
      }
    </style>
  </defs>
  <path d="M-0.000,94.994 C-0.000,94.994 -0.000,-0.000 -0.000,-0.000 C-0.000,-0.000 100.006,-0.000 100.006,-0.000 C100.006,-0.000 100.006,94.994 100.006,94.994 C100.006,94.994 -0.000,94.994 -0.000,94.994 ZM93.000,7.000 C93.000,7.000 7.000,7.000 7.000,7.000 C7.000,7.000 7.000,88.000 7.000,88.000 C7.000,88.000 93.000,88.000 93.000,88.000 C93.000,88.000 93.000,7.000 93.000,7.000 ZM45.509,22.682 C45.509,22.682 57.747,68.822 57.747,68.822 C57.747,68.822 49.716,68.822 49.716,68.822 C49.716,68.822 46.083,55.058 46.083,55.058 C46.083,55.058 33.463,55.058 33.463,55.058 C33.463,55.058 29.447,68.822 29.447,68.822 C29.447,68.822 22.755,68.822 22.755,68.822 C22.755,68.822 35.375,22.682 35.375,22.682 C35.375,22.682 45.509,22.682 45.509,22.682 ZM44.744,48.079 C44.744,48.079 39.964,32.376 39.964,32.376 C39.964,32.376 34.801,48.079 34.801,48.079 C34.801,48.079 44.744,48.079 44.744,48.079 ZM69.414,21.141 C71.947,21.141 74.000,23.222 74.000,25.789 C74.000,28.356 71.947,30.438 69.414,30.438 C66.881,30.438 64.828,28.356 64.828,25.789 C64.828,23.222 66.881,21.141 69.414,21.141 ZM72.662,68.822 C72.662,68.822 65.778,68.822 65.778,68.822 C65.778,68.822 65.778,34.120 65.778,34.120 C65.778,34.120 72.662,34.120 72.662,34.120 C72.662,34.120 72.662,68.822 72.662,68.822 Z" id="path-1" class="cls-2" fill-rule="evenodd"/>
</svg>
