<svg xmlns="http://www.w3.org/2000/svg" xmlns:xlink="http://www.w3.org/1999/xlink" preserveAspectRatio="xMidYMid" width="100" height="95" viewBox="0 0 100 95">
  <defs>
    <style>

      .cls-2 {
        fill: #1e1e1e;
      }
    </style>
  </defs>
  <path d="M-0.000,95.000 C-0.000,95.000 -0.000,-0.000 -0.000,-0.000 C-0.000,-0.000 100.000,-0.000 100.000,-0.000 C100.000,-0.000 100.000,95.000 100.000,95.000 C100.000,95.000 -0.000,95.000 -0.000,95.000 ZM93.000,7.000 C93.000,7.000 7.000,7.000 7.000,7.000 C7.000,7.000 7.000,88.000 7.000,88.000 C7.000,88.000 93.000,88.000 93.000,88.000 C93.000,88.000 93.000,7.000 93.000,7.000 ZM9.500,13.500 C9.500,13.500 38.707,14.838 49.000,40.000 C49.351,40.858 49.728,41.655 50.120,42.413 C52.236,41.950 54.512,41.053 57.000,39.500 C72.586,29.770 79.000,9.500 79.000,9.500 C79.000,9.500 86.388,36.574 62.000,52.000 C61.847,52.096 61.698,52.173 61.546,52.265 C73.605,55.594 88.000,46.000 88.000,46.000 C88.000,46.000 49.050,75.434 42.409,53.281 C35.762,50.798 30.223,47.217 25.500,51.000 C16.036,58.578 9.500,85.000 9.500,85.000 C9.500,85.000 11.936,54.591 23.000,44.000 C29.643,37.640 34.949,40.801 41.501,42.238 C41.265,21.309 9.500,13.500 9.500,13.500 ZM40.000,78.500 C50.327,77.165 70.500,66.000 70.500,66.000 C70.500,66.000 53.890,78.705 33.500,84.000 C13.110,89.295 32.000,57.500 32.000,57.500 C32.000,57.500 29.672,79.835 40.000,78.500 ZM84.000,65.500 C84.000,65.500 93.750,71.568 84.500,79.500 C76.438,86.413 56.668,81.731 56.668,81.731 C56.668,81.731 69.865,81.832 79.000,77.000 C88.172,72.149 84.000,65.500 84.000,65.500 ZM52.000,15.500 C42.473,9.203 33.000,11.000 33.000,11.000 C33.000,11.000 53.680,6.511 61.000,14.000 C68.320,21.488 54.000,36.000 54.000,36.000 C54.000,36.000 61.527,21.796 52.000,15.500 Z" id="path-1" class="cls-2" fill-rule="evenodd"/>
</svg>
