<svg xmlns="http://www.w3.org/2000/svg" xmlns:xlink="http://www.w3.org/1999/xlink" preserveAspectRatio="xMidYMid" width="100" height="95" viewBox="0 0 100 95">
  <defs>
    <style>

      .cls-2 {
        fill: #1e1e1e;
      }
    </style>
  </defs>
  <path d="M-0.000,95.000 C-0.000,95.000 -0.000,-0.000 -0.000,-0.000 C-0.000,-0.000 100.000,-0.000 100.000,-0.000 C100.000,-0.000 100.000,95.000 100.000,95.000 C100.000,95.000 -0.000,95.000 -0.000,95.000 ZM93.000,7.000 C93.000,7.000 7.000,7.000 7.000,7.000 C7.000,7.000 7.000,88.000 7.000,88.000 C7.000,88.000 93.000,88.000 93.000,88.000 C93.000,88.000 93.000,7.000 93.000,7.000 ZM24.500,33.500 C27.234,26.646 30.500,10.000 30.500,10.000 C30.500,10.000 45.000,27.000 45.000,27.000 C45.000,27.000 50.000,26.500 50.000,26.500 C50.000,26.500 55.000,27.000 55.000,27.000 C55.000,27.000 69.500,10.000 69.500,10.000 C69.500,10.000 72.766,26.646 75.500,33.500 C78.234,40.354 88.500,46.500 88.500,46.500 C88.500,46.500 84.824,61.417 74.000,68.500 C64.689,74.592 50.000,76.500 50.000,76.500 C50.000,76.500 35.311,74.592 26.000,68.500 C15.176,61.417 11.000,46.500 11.000,46.500 C11.000,46.500 21.766,40.354 24.500,33.500 ZM32.500,19.000 C32.500,19.000 28.000,33.500 28.000,33.500 C28.000,33.500 30.644,31.656 34.500,30.000 C38.356,28.344 40.500,28.000 40.500,28.000 C40.500,28.000 32.500,19.000 32.500,19.000 ZM37.000,34.500 C33.149,33.793 30.000,35.500 30.000,35.500 C30.000,35.500 31.992,34.863 37.500,36.000 C43.008,37.137 44.500,37.500 44.500,37.500 C44.500,37.500 40.851,35.207 37.000,34.500 ZM46.000,44.500 C44.626,42.220 41.881,40.088 39.000,40.000 C34.482,39.862 29.500,41.000 29.500,41.000 C29.500,41.000 30.923,45.587 37.500,46.000 C44.077,46.413 46.000,48.500 46.000,48.500 C46.000,48.500 47.094,46.315 46.000,44.500 ZM54.000,44.500 C52.906,46.315 54.000,48.500 54.000,48.500 C54.000,48.500 55.923,46.413 62.500,46.000 C69.077,45.587 70.500,41.000 70.500,41.000 C70.500,41.000 65.518,39.862 61.000,40.000 C58.119,40.088 55.374,42.220 54.000,44.500 ZM62.500,36.000 C68.008,34.863 70.000,35.500 70.000,35.500 C70.000,35.500 66.850,33.793 63.000,34.500 C59.149,35.207 55.500,37.500 55.500,37.500 C55.500,37.500 56.992,37.137 62.500,36.000 ZM67.500,19.000 C67.500,19.000 59.500,28.000 59.500,28.000 C59.500,28.000 61.644,28.344 65.500,30.000 C69.356,31.656 72.000,33.500 72.000,33.500 C72.000,33.500 67.500,19.000 67.500,19.000 ZM72.000,47.000 C68.535,48.195 65.000,51.000 65.000,51.000 C65.000,51.000 70.094,49.465 74.000,48.000 C78.090,46.466 81.000,45.000 81.000,45.000 C81.000,45.000 75.772,45.699 72.000,47.000 ZM76.000,50.000 C72.444,50.736 70.000,52.000 70.000,52.000 C70.000,52.000 74.319,51.859 78.000,51.000 C81.817,50.109 85.000,48.500 85.000,48.500 C85.000,48.500 79.691,49.237 76.000,50.000 ZM74.000,56.000 C76.709,56.226 81.000,56.000 81.000,56.000 C81.000,56.000 78.150,55.411 75.000,55.000 C72.468,54.670 68.000,55.000 68.000,55.000 C68.000,55.000 70.757,55.730 74.000,56.000 ZM40.000,65.500 C47.651,71.019 50.000,63.000 50.000,63.000 C50.000,63.000 52.349,71.019 60.000,65.500 C62.667,63.576 67.000,58.500 67.000,58.500 C67.000,58.500 58.846,65.869 55.000,65.500 C50.934,65.110 50.000,57.000 50.000,57.000 C50.000,57.000 52.000,53.500 52.000,53.500 C52.000,53.500 50.000,53.000 50.000,53.000 C50.000,53.000 48.000,53.500 48.000,53.500 C48.000,53.500 50.000,57.000 50.000,57.000 C50.000,57.000 49.065,65.110 45.000,65.500 C41.154,65.869 33.000,58.500 33.000,58.500 C33.000,58.500 37.333,63.576 40.000,65.500 ZM28.000,55.000 C31.139,54.477 32.000,54.000 32.000,54.000 C32.000,54.000 27.532,53.670 25.000,54.000 C21.850,54.411 20.000,55.000 20.000,55.000 C20.000,55.000 25.153,55.475 28.000,55.000 ZM15.000,48.500 C15.000,48.500 19.331,50.241 23.000,51.000 C26.579,51.741 29.500,51.500 29.500,51.500 C29.500,51.500 24.556,49.736 21.000,49.000 C17.309,48.237 15.000,48.500 15.000,48.500 ZM26.000,48.000 C29.486,49.202 33.500,50.000 33.500,50.000 C33.500,50.000 31.465,48.195 28.000,47.000 C24.228,45.699 19.000,45.000 19.000,45.000 C19.000,45.000 22.246,46.705 26.000,48.000 Z" id="path-1" class="cls-2" fill-rule="evenodd"/>
</svg>
