<svg xmlns="http://www.w3.org/2000/svg" xmlns:xlink="http://www.w3.org/1999/xlink" preserveAspectRatio="xMidYMid" width="100" height="95" viewBox="0 0 100 95">
  <defs>
    <style>

      .cls-2 {
        fill: #1e1e1e;
      }
    </style>
  </defs>
  <path d="M-0.000,94.994 C-0.000,94.994 -0.000,-0.000 -0.000,-0.000 C-0.000,-0.000 100.006,-0.000 100.006,-0.000 C100.006,-0.000 100.006,94.994 100.006,94.994 C100.006,94.994 -0.000,94.994 -0.000,94.994 ZM93.000,7.000 C93.000,7.000 7.000,7.000 7.000,7.000 C7.000,7.000 7.000,88.000 7.000,88.000 C7.000,88.000 93.000,88.000 93.000,88.000 C93.000,88.000 93.000,7.000 93.000,7.000 ZM15.000,83.000 C15.000,83.000 10.000,83.000 10.000,83.000 C10.000,83.000 10.000,80.000 10.000,80.000 C10.000,80.000 15.000,80.000 15.000,80.000 C15.000,80.000 15.000,83.000 15.000,83.000 ZM51.000,28.000 C51.000,28.000 16.000,28.000 16.000,28.000 C16.000,28.000 16.000,25.000 16.000,25.000 C16.000,25.000 51.000,25.000 51.000,25.000 C51.000,25.000 51.000,28.000 51.000,28.000 ZM24.000,38.000 C24.000,38.000 16.000,38.000 16.000,38.000 C16.000,38.000 16.000,35.000 16.000,35.000 C16.000,35.000 24.000,35.000 24.000,35.000 C24.000,35.000 24.000,38.000 24.000,38.000 ZM42.000,43.000 C42.000,43.000 16.000,43.000 16.000,43.000 C16.000,43.000 16.000,40.000 16.000,40.000 C16.000,40.000 42.000,40.000 42.000,40.000 C42.000,40.000 42.000,43.000 42.000,43.000 ZM24.000,78.000 C24.000,78.000 16.000,78.000 16.000,78.000 C16.000,78.000 16.000,75.000 16.000,75.000 C16.000,75.000 24.000,75.000 24.000,75.000 C24.000,75.000 24.000,78.000 24.000,78.000 ZM22.000,70.000 C22.000,70.000 29.000,70.000 29.000,70.000 C29.000,70.000 29.000,73.000 29.000,73.000 C29.000,73.000 22.000,73.000 22.000,73.000 C22.000,73.000 22.000,70.000 22.000,70.000 ZM28.000,65.000 C28.000,65.000 58.000,65.000 58.000,65.000 C58.000,65.000 58.000,68.000 58.000,68.000 C58.000,68.000 28.000,68.000 28.000,68.000 C28.000,68.000 28.000,65.000 28.000,65.000 ZM28.000,55.000 C28.000,55.000 90.000,55.000 90.000,55.000 C90.000,55.000 90.000,58.000 90.000,58.000 C90.000,58.000 28.000,58.000 28.000,58.000 C28.000,58.000 28.000,55.000 28.000,55.000 ZM54.000,63.000 C54.000,63.000 22.000,63.000 22.000,63.000 C22.000,63.000 22.000,60.000 22.000,60.000 C22.000,60.000 54.000,60.000 54.000,60.000 C54.000,60.000 54.000,63.000 54.000,63.000 ZM28.000,50.000 C28.000,50.000 90.000,50.000 90.000,50.000 C90.000,50.000 90.000,53.000 90.000,53.000 C90.000,53.000 28.000,53.000 28.000,53.000 C28.000,53.000 28.000,50.000 28.000,50.000 ZM22.000,45.000 C22.000,45.000 67.000,45.000 67.000,45.000 C67.000,45.000 67.000,48.000 67.000,48.000 C67.000,48.000 22.000,48.000 22.000,48.000 C22.000,48.000 22.000,45.000 22.000,45.000 ZM22.000,30.000 C22.000,30.000 55.000,30.000 55.000,30.000 C55.000,30.000 55.000,33.000 55.000,33.000 C55.000,33.000 22.000,33.000 22.000,33.000 C22.000,33.000 22.000,30.000 22.000,30.000 ZM10.000,23.000 C10.000,23.000 10.000,20.000 10.000,20.000 C10.000,20.000 43.000,20.000 43.000,20.000 C43.000,20.000 43.000,23.000 43.000,23.000 C43.000,23.000 10.000,23.000 10.000,23.000 ZM10.000,15.000 C10.000,15.000 52.000,15.000 52.000,15.000 C52.000,15.000 52.000,18.000 52.000,18.000 C52.000,18.000 10.000,18.000 10.000,18.000 C10.000,18.000 10.000,15.000 10.000,15.000 ZM10.000,10.000 C10.000,10.000 32.000,10.000 32.000,10.000 C32.000,10.000 32.000,13.000 32.000,13.000 C32.000,13.000 10.000,13.000 10.000,13.000 C10.000,13.000 10.000,10.000 10.000,10.000 Z" id="path-1" class="cls-2" fill-rule="evenodd"/>
</svg>
