<svg xmlns="http://www.w3.org/2000/svg" xmlns:xlink="http://www.w3.org/1999/xlink" preserveAspectRatio="xMidYMid" width="100" height="95" viewBox="0 0 100 95">
  <defs>
    <style>

      .cls-2 {
        fill: #1e1e1e;
      }
    </style>
  </defs>
  <path d="M-0.000,94.994 C-0.000,94.994 -0.000,-0.000 -0.000,-0.000 C-0.000,-0.000 100.006,-0.000 100.006,-0.000 C100.006,-0.000 100.006,94.994 100.006,94.994 C100.006,94.994 -0.000,94.994 -0.000,94.994 ZM93.000,7.000 C93.000,7.000 7.000,7.000 7.000,7.000 C7.000,7.000 7.000,88.000 7.000,88.000 C7.000,88.000 93.000,88.000 93.000,88.000 C93.000,88.000 93.000,7.000 93.000,7.000 ZM52.000,49.000 C52.000,49.000 11.000,49.000 11.000,49.000 C11.000,49.000 11.000,31.000 11.000,31.000 C11.000,31.000 52.000,31.000 52.000,31.000 C52.000,31.000 52.000,49.000 52.000,49.000 ZM88.000,73.000 C88.000,73.000 11.000,73.000 11.000,73.000 C11.000,73.000 11.000,54.000 11.000,54.000 C11.000,54.000 88.000,54.000 88.000,54.000 C88.000,54.000 88.000,73.000 88.000,73.000 ZM52.000,85.000 C52.000,85.000 11.000,85.000 11.000,85.000 C11.000,85.000 11.000,79.000 11.000,79.000 C11.000,79.000 52.000,79.000 52.000,79.000 C52.000,79.000 52.000,85.000 52.000,85.000 ZM88.000,85.000 C88.000,85.000 63.000,85.000 63.000,85.000 C63.000,85.000 63.000,79.000 63.000,79.000 C63.000,79.000 88.000,79.000 88.000,79.000 C88.000,79.000 88.000,85.000 88.000,85.000 ZM63.000,31.000 C63.000,31.000 88.000,31.000 88.000,31.000 C88.000,31.000 88.000,49.000 88.000,49.000 C88.000,49.000 63.000,49.000 63.000,49.000 C63.000,49.000 63.000,31.000 63.000,31.000 ZM11.000,10.000 C11.000,10.000 88.000,10.000 88.000,10.000 C88.000,10.000 88.000,26.000 88.000,26.000 C88.000,26.000 11.000,26.000 11.000,26.000 C11.000,26.000 11.000,10.000 11.000,10.000 Z" id="path-1" class="cls-2" fill-rule="evenodd"/>
</svg>
