<svg xmlns="http://www.w3.org/2000/svg" xmlns:xlink="http://www.w3.org/1999/xlink" preserveAspectRatio="xMidYMid" width="100" height="95" viewBox="0 0 100 95">
  <defs>
    <style>

      .cls-2 {
        fill: #1e1e1e;
      }
    </style>
  </defs>
  <path d="M-0.000,94.994 C-0.000,94.994 -0.000,-0.000 -0.000,-0.000 C-0.000,-0.000 100.005,-0.000 100.005,-0.000 C100.005,-0.000 100.005,94.994 100.005,94.994 C100.005,94.994 -0.000,94.994 -0.000,94.994 ZM93.000,7.000 C93.000,7.000 7.000,7.000 7.000,7.000 C7.000,7.000 7.000,88.000 7.000,88.000 C7.000,88.000 93.000,88.000 93.000,88.000 C93.000,88.000 93.000,7.000 93.000,7.000 ZM33.000,20.000 C35.590,22.599 41.599,23.500 50.000,23.500 C58.415,23.500 64.405,22.595 67.000,20.000 C69.106,17.893 74.391,18.604 77.000,21.000 C83.455,26.926 88.707,45.096 88.000,61.500 C87.292,77.904 77.280,73.176 70.000,66.500 C62.719,59.823 58.657,60.000 50.000,60.000 C41.357,60.000 37.301,60.145 30.033,66.833 C22.764,73.521 12.706,78.432 12.000,62.000 C11.293,45.568 16.600,27.190 23.044,21.254 C25.649,18.854 30.897,17.890 33.000,20.000 ZM78.500,35.500 C79.881,35.500 81.000,34.381 81.000,33.000 C81.000,31.619 79.881,30.500 78.500,30.500 C77.119,30.500 76.000,31.619 76.000,33.000 C76.000,34.381 77.119,35.500 78.500,35.500 ZM73.000,41.000 C74.381,41.000 75.500,39.881 75.500,38.500 C75.500,37.119 74.381,36.000 73.000,36.000 C71.619,36.000 70.500,37.119 70.500,38.500 C70.500,39.881 71.619,41.000 73.000,41.000 ZM73.000,29.500 C74.381,29.500 75.500,28.381 75.500,27.000 C75.500,25.619 74.381,24.500 73.000,24.500 C71.619,24.500 70.500,25.619 70.500,27.000 C70.500,28.381 71.619,29.500 73.000,29.500 ZM69.500,33.000 C69.500,31.619 68.381,30.500 67.000,30.500 C65.619,30.500 64.500,31.619 64.500,33.000 C64.500,34.381 65.619,35.500 67.000,35.500 C68.381,35.500 69.500,34.381 69.500,33.000 ZM61.000,52.500 C64.037,52.500 66.500,50.037 66.500,47.000 C66.500,43.962 64.037,41.500 61.000,41.500 C57.962,41.500 55.500,43.962 55.500,47.000 C55.500,50.037 57.962,52.500 61.000,52.500 ZM57.500,35.000 C58.881,35.000 60.000,34.216 60.000,33.250 C60.000,32.283 58.881,31.500 57.500,31.500 C56.119,31.500 55.000,32.283 55.000,33.250 C55.000,34.216 56.119,35.000 57.500,35.000 ZM41.750,31.500 C40.507,31.500 39.500,32.283 39.500,33.250 C39.500,34.216 40.507,35.000 41.750,35.000 C42.992,35.000 44.000,34.216 44.000,33.250 C44.000,32.283 42.992,31.500 41.750,31.500 ZM37.500,53.500 C41.090,53.500 44.000,50.590 44.000,47.000 C44.000,43.410 41.090,40.500 37.500,40.500 C33.910,40.500 31.000,43.410 31.000,47.000 C31.000,50.590 33.910,53.500 37.500,53.500 ZM20.500,32.500 C20.500,35.537 22.962,38.000 26.000,38.000 C29.037,38.000 31.500,35.537 31.500,32.500 C31.500,29.462 29.037,27.000 26.000,27.000 C22.962,27.000 20.500,29.462 20.500,32.500 ZM36.500,47.000 C36.500,47.000 34.500,49.000 34.500,49.000 C34.500,49.000 31.500,49.000 31.500,49.000 C31.500,49.000 31.500,45.000 31.500,45.000 C31.500,45.000 34.500,45.000 34.500,45.000 C34.500,45.000 36.500,47.000 36.500,47.000 ZM39.500,50.000 C39.500,50.000 39.500,53.000 39.500,53.000 C39.500,53.000 35.500,53.000 35.500,53.000 C35.500,53.000 35.500,50.000 35.500,50.000 C35.500,50.000 37.500,48.000 37.500,48.000 C37.500,48.000 39.500,50.000 39.500,50.000 ZM40.500,45.000 C40.500,45.000 43.500,45.000 43.500,45.000 C43.500,45.000 43.500,49.000 43.500,49.000 C43.500,49.000 40.500,49.000 40.500,49.000 C40.500,49.000 38.500,47.000 38.500,47.000 C38.500,47.000 40.500,45.000 40.500,45.000 ZM35.500,44.000 C35.500,44.000 35.500,41.000 35.500,41.000 C35.500,41.000 39.500,41.000 39.500,41.000 C39.500,41.000 39.500,44.000 39.500,44.000 C39.500,44.000 37.500,46.000 37.500,46.000 C37.500,46.000 35.500,44.000 35.500,44.000 Z" id="path-1" class="cls-2" fill-rule="evenodd"/>
</svg>
