<svg xmlns="http://www.w3.org/2000/svg" xmlns:xlink="http://www.w3.org/1999/xlink" preserveAspectRatio="xMidYMid" width="100" height="95" viewBox="0 0 100 95">
  <defs>
    <style>

      .cls-2 {
        fill: #1e1e1e;
      }
    </style>
  </defs>
  <path d="M100.000,95.000 C100.000,95.000 -0.000,95.000 -0.000,95.000 C-0.000,95.000 -0.001,-0.008 -0.001,-0.008 C-0.001,-0.008 100.000,-0.008 100.000,-0.008 C100.000,-0.008 100.000,95.000 100.000,95.000 ZM94.000,6.000 C94.000,6.000 6.000,6.000 6.000,6.000 C6.000,6.000 6.000,89.000 6.000,89.000 C6.000,89.000 94.000,89.000 94.000,89.000 C94.000,89.000 94.000,6.000 94.000,6.000 ZM33.231,10.000 C33.231,10.000 68.769,10.000 68.769,10.000 C71.106,10.000 73.000,12.238 73.000,15.000 C73.000,15.000 73.000,81.000 73.000,81.000 C73.000,83.761 71.106,86.000 68.769,86.000 C68.769,86.000 33.231,86.000 33.231,86.000 C30.894,86.000 29.000,83.761 29.000,81.000 C29.000,81.000 29.000,15.000 29.000,15.000 C29.000,12.238 30.894,10.000 33.231,10.000 ZM34.500,12.000 C33.672,12.000 33.000,12.672 33.000,13.500 C33.000,14.328 33.672,15.000 34.500,15.000 C35.328,15.000 36.000,14.328 36.000,13.500 C36.000,12.672 35.328,12.000 34.500,12.000 ZM59.000,12.000 C59.000,12.000 45.000,12.000 45.000,12.000 C44.448,12.000 44.000,12.448 44.000,13.000 C44.000,13.552 44.448,14.000 45.000,14.000 C45.000,14.000 59.000,14.000 59.000,14.000 C59.552,14.000 60.000,13.552 60.000,13.000 C60.000,12.448 59.552,12.000 59.000,12.000 ZM32.000,79.000 C32.000,79.000 70.000,79.000 70.000,79.000 C70.000,79.000 70.000,17.000 70.000,17.000 C70.000,17.000 32.000,17.000 32.000,17.000 C32.000,17.000 32.000,79.000 32.000,79.000 Z" id="path-1" class="cls-2" fill-rule="evenodd"/>
</svg>
