<svg xmlns="http://www.w3.org/2000/svg" xmlns:xlink="http://www.w3.org/1999/xlink" preserveAspectRatio="xMidYMid" width="100" height="95" viewBox="0 0 100 95">
  <defs>
    <style>

      .cls-2 {
        fill: #1e1e1e;
      }
    </style>
  </defs>
  <path d="M-0.000,95.000 C-0.000,95.000 -0.000,-0.000 -0.000,-0.000 C-0.000,-0.000 100.000,-0.000 100.000,-0.000 C100.000,-0.000 100.000,95.000 100.000,95.000 C100.000,95.000 -0.000,95.000 -0.000,95.000 ZM93.000,7.000 C93.000,7.000 7.000,7.000 7.000,7.000 C7.000,7.000 7.000,88.000 7.000,88.000 C7.000,88.000 93.000,88.000 93.000,88.000 C93.000,88.000 93.000,7.000 93.000,7.000 ZM49.904,37.596 C49.904,54.325 29.445,51.884 29.445,51.884 C29.445,51.884 29.445,68.875 29.445,68.875 C29.445,68.875 22.753,68.875 22.753,68.875 C22.753,68.875 22.753,22.922 22.753,22.922 C22.753,22.922 25.771,22.150 30.784,22.150 C35.796,22.150 49.904,20.866 49.904,37.596 ZM29.445,45.126 C29.445,45.126 42.256,47.316 42.256,37.017 C42.256,26.569 29.445,30.066 29.445,30.066 C29.445,30.066 29.445,45.126 29.445,45.126 ZM56.979,44.161 C57.008,33.698 64.703,33.541 69.599,33.541 C74.494,33.541 75.908,34.314 75.908,34.314 C75.908,34.314 75.908,42.230 75.908,42.230 C75.908,42.230 72.562,40.685 69.216,40.685 C65.871,40.685 63.862,41.390 63.862,43.581 C63.862,47.841 77.247,50.196 77.247,59.607 C77.247,66.385 73.493,69.454 64.818,69.454 C58.342,69.454 56.979,67.330 56.979,67.330 C56.979,67.330 56.979,59.221 56.979,59.221 C56.979,59.221 69.216,65.705 69.216,59.414 C69.216,55.521 56.950,54.583 56.979,44.161 Z" id="path-1" class="cls-2" fill-rule="evenodd"/>
</svg>
