<svg xmlns="http://www.w3.org/2000/svg" xmlns:xlink="http://www.w3.org/1999/xlink" preserveAspectRatio="xMidYMid" width="100" height="95" viewBox="0 0 100 95">
  <defs>
    <style>

      .cls-2 {
        fill: #1e1e1e;
      }
    </style>
  </defs>
  <path d="M-0.000,94.994 C-0.000,94.994 -0.000,-0.000 -0.000,-0.000 C-0.000,-0.000 100.006,-0.000 100.006,-0.000 C100.006,-0.000 100.006,94.994 100.006,94.994 C100.006,94.994 -0.000,94.994 -0.000,94.994 ZM93.000,7.000 C93.000,7.000 7.000,7.000 7.000,7.000 C7.000,7.000 7.000,88.000 7.000,88.000 C7.000,88.000 93.000,88.000 93.000,88.000 C93.000,88.000 93.000,7.000 93.000,7.000 ZM49.500,9.500 C71.591,9.500 89.500,22.036 89.500,37.500 C89.500,52.964 71.591,65.500 49.500,65.500 C44.216,65.500 39.172,64.783 34.555,63.480 C33.496,63.182 30.172,65.141 29.500,69.000 C28.579,74.285 30.500,82.000 30.500,82.000 C30.500,82.000 25.225,75.737 23.000,69.500 C20.905,63.627 21.885,57.779 20.929,57.096 C13.859,52.046 9.500,45.129 9.500,37.500 C9.500,22.036 27.408,9.500 49.500,9.500 ZM28.988,18.729 C28.988,18.729 27.333,20.369 25.364,23.106 C24.647,22.032 24.148,21.559 24.148,21.559 C24.148,21.559 24.221,22.659 24.543,24.291 C22.868,26.789 21.104,29.980 20.000,33.585 C22.272,31.550 23.999,29.346 25.302,27.273 C26.102,29.821 27.441,32.746 29.680,35.000 C28.852,30.444 27.623,27.255 26.533,25.121 C28.419,21.512 28.988,18.729 28.988,18.729 ZM56.645,32.878 C55.215,25.025 50.422,22.267 50.422,22.267 C50.422,22.267 51.450,28.607 56.645,32.878 ZM53.643,38.180 C53.643,38.180 54.512,42.611 59.454,43.933 C56.231,37.966 53.643,38.180 53.643,38.180 ZM66.325,18.729 C60.254,23.737 59.411,32.878 59.411,32.878 C59.411,32.878 61.907,30.106 64.085,25.280 C64.304,27.395 65.031,29.816 67.017,31.463 C66.693,26.546 65.897,23.842 65.241,22.394 C65.645,21.249 66.017,20.032 66.325,18.729 ZM76.162,46.809 C76.760,48.818 77.615,51.843 77.615,51.843 C77.615,51.843 77.706,48.908 78.342,46.809 C78.977,44.710 79.905,37.323 76.889,36.742 C73.872,36.160 75.564,44.800 76.162,46.809 ZM76.005,31.463 C76.005,31.463 75.073,27.130 73.240,25.096 C71.406,23.063 79.405,20.742 75.314,18.729 C71.223,16.717 68.399,19.437 68.399,19.437 C68.399,19.437 71.323,20.221 73.240,20.144 C75.156,20.068 70.995,22.306 71.165,25.096 C71.335,27.886 73.240,31.463 73.240,31.463 C73.240,31.463 76.005,31.463 76.005,31.463 ZM67.445,52.562 C70.420,48.093 67.445,43.213 67.445,43.213 C67.445,43.213 65.942,49.742 67.445,52.562 ZM72.530,43.933 C70.210,39.745 65.266,36.742 65.266,36.742 C65.266,36.742 66.551,42.554 72.530,43.933 ZM63.813,52.562 C65.333,42.130 63.086,38.180 63.086,38.180 C63.086,38.180 60.819,46.694 63.813,52.562 ZM59.454,45.371 C53.193,47.797 50.010,52.562 50.010,52.562 C50.010,52.562 58.219,50.233 59.454,45.371 ZM47.831,52.562 C53.020,41.978 51.449,38.093 51.395,37.528 C51.437,37.485 51.463,37.460 51.463,37.460 C51.402,37.430 51.388,37.455 51.395,37.528 C50.787,38.135 46.237,43.049 47.831,52.562 ZM48.348,33.585 C50.064,24.914 47.657,21.559 47.657,21.559 C47.657,21.559 45.358,27.265 48.348,33.585 ZM56.645,20.144 C51.105,16.770 46.274,20.144 46.274,20.144 C46.274,20.144 51.276,21.657 56.645,20.144 ZM33.302,38.180 C33.302,38.180 38.254,40.086 44.925,38.180 C39.282,34.816 33.302,38.180 33.302,38.180 ZM41.434,23.681 C41.434,23.681 38.960,27.390 41.434,33.585 C43.398,27.787 41.434,23.681 41.434,23.681 ZM44.199,53.281 C41.696,43.379 36.934,41.775 36.934,41.775 C36.934,41.775 38.000,48.606 44.199,53.281 ZM34.029,53.281 C37.088,44.950 34.029,40.337 34.029,40.337 C34.029,40.337 31.237,47.830 34.029,53.281 ZM35.171,25.879 C35.228,28.464 35.726,31.485 37.286,34.293 C38.200,30.090 38.131,26.857 37.736,24.486 C39.478,23.411 41.313,21.990 42.817,20.144 C41.061,20.536 39.121,21.581 37.360,22.750 C36.739,20.506 35.903,19.437 35.903,19.437 C35.903,19.437 35.308,21.451 35.182,24.313 C33.177,25.855 31.754,27.218 31.754,27.218 C31.754,27.218 33.203,26.812 35.171,25.879 ZM28.944,53.281 C27.799,49.294 26.485,45.964 25.254,43.309 C30.159,40.783 31.123,36.022 31.123,36.022 C31.123,36.022 26.433,38.033 24.549,41.838 C22.511,37.748 20.874,35.710 20.953,36.022 C20.953,36.022 21.967,48.986 28.944,53.281 ZM23.859,54.000 C23.546,47.229 19.500,43.213 19.500,43.213 C19.503,43.431 20.169,52.085 23.859,54.000 Z" id="path-1" class="cls-2" fill-rule="evenodd"/>
</svg>
