<svg xmlns="http://www.w3.org/2000/svg" xmlns:xlink="http://www.w3.org/1999/xlink" preserveAspectRatio="xMidYMid" width="100" height="95" viewBox="0 0 100 95">
  <defs>
    <style>

      .cls-2 {
        fill: #1e1e1e;
      }
    </style>
  </defs>
  <path d="M-0.000,94.994 C-0.000,94.994 -0.000,-0.000 -0.000,-0.000 C-0.000,-0.000 100.006,-0.000 100.006,-0.000 C100.006,-0.000 100.006,94.994 100.006,94.994 C100.006,94.994 -0.000,94.994 -0.000,94.994 ZM93.000,7.000 C93.000,7.000 7.000,7.000 7.000,7.000 C7.000,7.000 7.000,88.000 7.000,88.000 C7.000,88.000 93.000,88.000 93.000,88.000 C93.000,88.000 93.000,7.000 93.000,7.000 ZM75.000,25.000 C75.000,25.000 47.000,25.000 47.000,25.000 C47.000,25.000 47.000,83.000 47.000,83.000 C47.000,83.000 32.000,83.000 32.000,83.000 C32.000,83.000 32.000,25.000 32.000,25.000 C32.000,25.000 12.000,25.000 12.000,25.000 C12.000,25.000 12.000,12.000 12.000,12.000 C12.000,12.000 88.000,12.000 88.000,12.000 C88.000,12.000 75.000,25.000 75.000,25.000 ZM75.000,83.000 C75.000,83.000 61.000,83.000 61.000,83.000 C61.000,83.000 61.000,40.000 61.000,40.000 C61.000,40.000 75.000,40.000 75.000,40.000 C75.000,40.000 75.000,83.000 75.000,83.000 Z" id="path-1" class="cls-2" fill-rule="evenodd"/>
</svg>
