<svg xmlns="http://www.w3.org/2000/svg" xmlns:xlink="http://www.w3.org/1999/xlink" preserveAspectRatio="xMidYMid" width="100" height="95" viewBox="0 0 100 95">
  <defs>
    <style>

      .cls-2 {
        fill: #1e1e1e;
      }
    </style>
  </defs>
  <path d="M-0.000,94.994 C-0.000,94.994 -0.000,-0.000 -0.000,-0.000 C-0.000,-0.000 100.006,-0.000 100.006,-0.000 C100.006,-0.000 100.006,94.994 100.006,94.994 C100.006,94.994 -0.000,94.994 -0.000,94.994 ZM93.000,7.000 C93.000,7.000 7.000,7.000 7.000,7.000 C7.000,7.000 7.000,88.000 7.000,88.000 C7.000,88.000 93.000,88.000 93.000,88.000 C93.000,88.000 93.000,7.000 93.000,7.000 ZM89.000,82.000 C89.000,82.000 11.000,82.000 11.000,82.000 C11.000,82.000 11.000,78.000 11.000,78.000 C11.000,78.000 89.000,78.000 89.000,78.000 C89.000,78.000 89.000,82.000 89.000,82.000 ZM81.000,65.000 C81.000,65.000 85.000,65.000 85.000,65.000 C85.000,65.000 85.000,69.000 85.000,69.000 C85.000,69.000 81.000,69.000 81.000,69.000 C81.000,69.000 81.000,65.000 81.000,65.000 ZM81.000,30.000 C81.000,30.000 85.000,30.000 85.000,30.000 C85.000,30.000 85.000,34.000 85.000,34.000 C85.000,34.000 81.000,34.000 81.000,34.000 C81.000,34.000 81.000,30.000 81.000,30.000 ZM17.000,23.000 C17.000,23.000 76.000,23.000 76.000,23.000 C76.000,23.000 76.000,40.000 76.000,40.000 C76.000,40.000 17.000,40.000 17.000,40.000 C17.000,40.000 17.000,23.000 17.000,23.000 ZM17.000,42.000 C17.000,42.000 45.000,42.000 45.000,42.000 C45.000,42.000 45.000,56.000 45.000,56.000 C45.000,56.000 17.000,56.000 17.000,56.000 C17.000,56.000 17.000,42.000 17.000,42.000 ZM76.000,42.000 C76.000,42.000 76.000,56.000 76.000,56.000 C76.000,56.000 49.000,56.000 49.000,56.000 C49.000,56.000 49.000,42.000 49.000,42.000 C49.000,42.000 76.000,42.000 76.000,42.000 ZM76.000,75.000 C76.000,75.000 17.000,75.000 17.000,75.000 C17.000,75.000 17.000,58.000 17.000,58.000 C17.000,58.000 76.000,58.000 76.000,58.000 C76.000,58.000 76.000,75.000 76.000,75.000 ZM17.000,13.000 C17.000,13.000 76.000,13.000 76.000,13.000 C76.000,13.000 76.000,20.000 76.000,20.000 C76.000,20.000 17.000,20.000 17.000,20.000 C17.000,20.000 17.000,13.000 17.000,13.000 Z" id="path-1" class="cls-2" fill-rule="evenodd"/>
</svg>
