<svg xmlns="http://www.w3.org/2000/svg" xmlns:xlink="http://www.w3.org/1999/xlink" preserveAspectRatio="xMidYMid" width="100" height="95" viewBox="0 0 100 95">
  <defs>
    <style>

      .cls-2 {
        fill: #1e1e1e;
      }
    </style>
  </defs>
  <path d="M-0.375,94.710 C-0.375,94.710 -0.375,-0.397 -0.375,-0.397 C-0.375,-0.397 100.050,-0.397 100.050,-0.397 C100.050,-0.397 100.050,94.710 100.050,94.710 C100.050,94.710 -0.375,94.710 -0.375,94.710 ZM93.015,6.611 C93.015,6.611 6.655,6.611 6.655,6.611 C6.655,6.611 6.655,87.708 6.655,87.708 C6.655,87.708 93.015,87.708 93.015,87.708 C93.015,87.708 93.015,6.611 93.015,6.611 ZM42.410,60.897 C42.410,60.897 41.700,60.189 41.700,60.189 C41.700,60.189 40.990,60.897 40.990,60.897 C40.990,60.897 40.990,60.897 40.990,60.897 C40.990,60.897 40.990,60.898 40.990,60.898 C40.990,60.898 41.700,61.605 41.700,61.605 C41.700,61.605 39.570,63.729 39.570,63.729 C39.570,63.729 38.860,63.021 38.860,63.021 C38.860,63.021 39.570,63.729 39.570,63.729 C39.570,63.729 41.700,61.606 41.700,61.606 C41.700,61.606 43.120,63.021 43.120,63.021 C43.120,63.021 43.830,62.313 43.830,62.313 C43.830,62.313 42.410,60.898 42.410,60.898 C42.410,60.898 42.410,60.898 42.410,60.898 C42.410,60.898 43.830,59.482 43.830,59.482 C43.830,59.482 69.000,85.000 69.000,85.000 C69.000,85.000 59.242,85.000 59.242,85.000 C59.242,85.000 60.162,84.260 60.162,84.260 C60.162,84.260 50.221,74.349 50.221,74.349 C50.221,74.349 39.049,85.000 39.049,85.000 C39.049,85.000 36.697,85.000 36.697,85.000 C36.697,85.000 48.801,72.933 48.801,72.933 C48.801,72.933 38.860,63.021 38.860,63.021 C38.860,63.021 26.079,75.765 26.079,75.765 C26.079,75.765 35.342,85.000 35.342,85.000 C35.342,85.000 27.000,85.000 27.000,85.000 C27.000,85.000 22.528,80.720 22.528,80.720 C22.528,80.720 23.949,79.304 23.949,79.304 C23.949,79.304 25.369,80.720 25.369,80.720 C25.369,80.720 26.079,80.012 26.079,80.012 C26.079,80.012 24.659,78.596 24.659,78.596 C24.659,78.596 26.789,76.472 26.789,76.472 C26.789,76.472 26.789,76.472 26.789,76.472 C26.789,76.472 24.659,78.596 24.659,78.596 C24.659,78.596 23.949,77.888 23.949,77.888 C23.949,77.888 23.239,78.596 23.239,78.596 C23.239,78.596 23.949,79.304 23.949,79.304 C23.949,79.304 22.528,80.720 22.528,80.720 C22.528,80.720 9.708,67.938 9.708,67.938 C9.708,67.938 9.704,65.102 9.704,65.102 C9.704,65.102 11.167,66.561 11.167,66.561 C11.167,66.561 11.877,65.853 11.877,65.853 C11.877,65.853 9.747,63.729 9.747,63.729 C9.747,63.729 9.702,63.775 9.702,63.775 C9.702,63.775 9.696,59.651 9.696,59.651 C9.696,59.651 13.298,63.021 13.298,63.021 C13.298,63.021 26.079,50.278 26.079,50.278 C26.079,50.278 16.138,40.367 16.138,40.367 C16.138,40.367 9.677,47.276 9.677,47.276 C9.677,47.276 9.673,44.288 9.673,44.288 C9.673,44.288 14.718,38.951 14.718,38.951 C14.718,38.951 9.657,33.683 9.657,33.683 C9.657,33.683 9.651,29.651 9.651,29.651 C9.651,29.651 11.167,31.164 11.167,31.164 C11.167,31.164 11.877,30.456 11.877,30.456 C11.877,30.456 9.747,28.332 9.747,28.332 C9.747,28.332 9.649,28.430 9.649,28.430 C9.649,28.430 9.644,25.397 9.644,25.397 C9.644,25.397 43.830,59.481 43.830,59.481 C43.830,59.481 42.410,60.897 42.410,60.897 ZM64.422,84.260 C64.422,84.260 65.132,83.552 65.132,83.552 C65.132,83.552 63.002,81.428 63.002,81.428 C63.002,81.428 62.292,82.136 62.292,82.136 C62.292,82.136 64.422,84.260 64.422,84.260 ZM60.872,80.720 C60.872,80.720 61.582,80.012 61.582,80.012 C61.582,80.012 59.452,77.888 59.452,77.888 C59.452,77.888 58.742,78.596 58.742,78.596 C58.742,78.596 60.872,80.720 60.872,80.720 ZM57.322,77.180 C57.322,77.180 58.032,76.472 58.032,76.472 C58.032,76.472 55.902,74.349 55.902,74.349 C55.902,74.349 55.192,75.057 55.192,75.057 C55.192,75.057 57.322,77.180 57.322,77.180 ZM53.771,73.641 C53.771,73.641 54.481,72.933 54.481,72.933 C54.481,72.933 52.351,70.809 52.351,70.809 C52.351,70.809 51.641,71.517 51.641,71.517 C51.641,71.517 53.771,73.641 53.771,73.641 ZM50.221,70.101 C50.221,70.101 50.931,69.393 50.931,69.393 C50.931,69.393 48.801,67.269 48.801,67.269 C48.801,67.269 48.091,67.977 48.091,67.977 C48.091,67.977 50.221,70.101 50.221,70.101 ZM46.671,66.561 C46.671,66.561 47.381,65.853 47.381,65.853 C47.381,65.853 45.251,63.729 45.251,63.729 C45.251,63.729 44.541,64.437 44.541,64.437 C44.541,64.437 46.671,66.561 46.671,66.561 ZM28.919,84.260 C28.919,84.260 29.629,83.552 29.629,83.552 C29.629,83.552 27.499,81.428 27.499,81.428 C27.499,81.428 26.789,82.136 26.789,82.136 C26.789,82.136 28.919,84.260 28.919,84.260 ZM13.298,31.872 C13.298,31.872 12.588,32.580 12.588,32.580 C12.588,32.580 14.718,34.703 14.718,34.703 C14.718,34.703 15.428,33.995 15.428,33.995 C15.428,33.995 13.298,31.872 13.298,31.872 ZM16.848,35.411 C16.848,35.411 16.138,36.119 16.138,36.119 C16.138,36.119 18.268,38.243 18.268,38.243 C18.268,38.243 18.978,37.535 18.978,37.535 C18.978,37.535 16.848,35.411 16.848,35.411 ZM20.398,38.951 C20.398,38.951 19.688,39.659 19.688,39.659 C19.688,39.659 21.818,41.783 21.818,41.783 C21.818,41.783 22.528,41.075 22.528,41.075 C22.528,41.075 20.398,38.951 20.398,38.951 ZM23.949,42.491 C23.949,42.491 23.239,43.199 23.239,43.199 C23.239,43.199 25.369,45.323 25.369,45.323 C25.369,45.323 26.079,44.615 26.079,44.615 C26.079,44.615 23.949,42.491 23.949,42.491 ZM21.818,77.180 C21.818,77.180 22.528,76.472 22.528,76.472 C22.528,76.472 20.398,74.349 20.398,74.349 C20.398,74.349 19.688,75.057 19.688,75.057 C19.688,75.057 21.818,77.180 21.818,77.180 ZM18.268,73.641 C18.268,73.641 18.978,72.933 18.978,72.933 C18.978,72.933 16.848,70.809 16.848,70.809 C16.848,70.809 16.138,71.517 16.138,71.517 C16.138,71.517 18.268,73.641 18.268,73.641 ZM12.588,67.977 C12.588,67.977 14.718,70.101 14.718,70.101 C14.718,70.101 15.428,69.393 15.428,69.393 C15.428,69.393 13.298,67.269 13.298,67.269 C13.298,67.269 12.588,67.977 12.588,67.977 ZM14.718,64.437 C14.718,64.437 24.659,74.348 24.659,74.348 C24.659,74.348 37.440,61.605 37.440,61.605 C37.440,61.605 27.499,51.694 27.499,51.694 C27.499,51.694 14.718,64.437 14.718,64.437 ZM27.499,46.030 C27.499,46.030 26.789,46.738 26.789,46.738 C26.789,46.738 28.919,48.862 28.919,48.862 C28.919,48.862 29.629,48.154 29.629,48.154 C29.629,48.154 27.499,46.030 27.499,46.030 ZM31.049,49.570 C31.049,49.570 30.339,50.278 30.339,50.278 C30.339,50.278 32.469,52.402 32.469,52.402 C32.469,52.402 33.179,51.694 33.179,51.694 C33.179,51.694 31.049,49.570 31.049,49.570 ZM34.600,53.110 C34.600,53.110 33.890,53.818 33.890,53.818 C33.890,53.818 36.020,55.942 36.020,55.942 C36.020,55.942 36.730,55.234 36.730,55.234 C36.730,55.234 34.600,53.110 34.600,53.110 ZM38.150,56.650 C38.150,56.650 37.440,57.358 37.440,57.358 C37.440,57.358 39.570,59.482 39.570,59.482 C39.570,59.482 40.280,58.774 40.280,58.774 C40.280,58.774 38.150,56.650 38.150,56.650 ZM53.070,42.260 C53.070,42.260 54.490,43.676 54.490,43.676 C54.490,43.676 55.200,42.968 55.200,42.968 C55.200,42.968 53.780,41.552 53.780,41.552 C53.780,41.552 55.910,39.428 55.910,39.428 C55.910,39.428 65.141,48.632 65.141,48.632 C65.141,48.632 77.922,35.889 77.922,35.889 C77.922,35.889 68.691,26.685 68.691,26.685 C68.691,26.685 70.822,24.561 70.822,24.561 C70.822,24.561 70.822,24.561 70.822,24.561 C70.822,24.561 72.242,25.977 72.242,25.977 C72.242,25.977 72.952,25.269 72.952,25.269 C72.952,25.269 71.532,23.853 71.532,23.853 C71.532,23.853 72.952,22.438 72.952,22.438 C72.952,22.438 89.995,39.429 89.995,39.429 C89.995,39.429 89.995,42.262 89.995,42.262 C89.995,42.262 88.573,40.844 88.573,40.844 C88.573,40.844 87.863,41.552 87.863,41.552 C87.863,41.552 89.993,43.676 89.993,43.676 C89.993,43.676 89.996,43.674 89.996,43.674 C89.996,43.674 89.997,49.336 89.997,49.336 C89.997,49.336 77.922,61.375 77.922,61.375 C77.922,61.375 87.863,71.286 87.863,71.286 C87.863,71.286 90.002,69.046 90.002,69.046 C90.002,69.046 90.002,71.989 90.002,71.989 C90.002,71.989 89.283,72.702 89.283,72.702 C89.283,72.702 90.003,73.246 90.003,73.246 C90.003,73.246 90.004,77.668 90.004,77.668 C90.004,77.668 88.573,76.242 88.573,76.242 C88.573,76.242 87.863,76.950 87.863,76.950 C87.863,76.950 89.993,79.074 89.993,79.074 C89.993,79.074 90.004,79.063 90.004,79.063 C90.004,79.063 90.005,81.917 90.005,81.917 C90.005,81.917 51.650,43.676 51.650,43.676 C51.650,43.676 53.070,42.260 53.070,42.260 ZM74.372,26.685 C74.372,26.685 73.662,27.393 73.662,27.393 C73.662,27.393 75.792,29.517 75.792,29.517 C75.792,29.517 76.502,28.809 76.502,28.809 C76.502,28.809 74.372,26.685 74.372,26.685 ZM77.922,30.225 C77.922,30.225 77.212,30.933 77.212,30.933 C77.212,30.933 79.342,33.057 79.342,33.057 C79.342,33.057 80.052,32.349 80.052,32.349 C80.052,32.349 77.922,30.225 77.922,30.225 ZM81.473,33.765 C81.473,33.765 80.763,34.473 80.763,34.473 C80.763,34.473 82.893,36.597 82.893,36.597 C82.893,36.597 83.603,35.889 83.603,35.889 C83.603,35.889 81.473,33.765 81.473,33.765 ZM85.023,37.305 C85.023,37.305 84.313,38.012 84.313,38.012 C84.313,38.012 86.443,40.136 86.443,40.136 C86.443,40.136 87.153,39.428 87.153,39.428 C87.153,39.428 85.023,37.305 85.023,37.305 ZM86.443,75.534 C86.443,75.534 87.153,74.826 87.153,74.826 C87.153,74.826 85.023,72.702 85.023,72.702 C85.023,72.702 84.313,73.410 84.313,73.410 C84.313,73.410 86.443,75.534 86.443,75.534 ZM82.893,71.994 C82.893,71.994 83.603,71.286 83.603,71.286 C83.603,71.286 81.473,69.162 81.473,69.162 C81.473,69.162 80.763,69.870 80.763,69.870 C80.763,69.870 82.893,71.994 82.893,71.994 ZM79.342,68.454 C79.342,68.454 80.052,67.746 80.052,67.746 C80.052,67.746 77.922,65.622 77.922,65.622 C77.922,65.622 77.212,66.330 77.212,66.330 C77.212,66.330 79.342,68.454 79.342,68.454 ZM75.792,64.914 C75.792,64.914 76.502,64.207 76.502,64.207 C76.502,64.207 74.372,62.083 74.372,62.083 C74.372,62.083 73.662,62.791 73.662,62.791 C73.662,62.791 75.792,64.914 75.792,64.914 ZM72.242,61.375 C72.242,61.375 72.952,60.667 72.952,60.667 C72.952,60.667 70.822,58.543 70.822,58.543 C70.822,58.543 70.112,59.251 70.112,59.251 C70.112,59.251 72.242,61.375 72.242,61.375 ZM68.691,57.835 C68.691,57.835 69.402,57.127 69.402,57.127 C69.402,57.127 67.271,55.003 67.271,55.003 C67.271,55.003 66.561,55.711 66.561,55.711 C66.561,55.711 68.691,57.835 68.691,57.835 ZM76.502,59.959 C76.502,59.959 89.283,47.216 89.283,47.216 C89.283,47.216 79.342,37.305 79.342,37.305 C79.342,37.305 66.561,50.047 66.561,50.047 C66.561,50.047 76.502,59.959 76.502,59.959 ZM65.141,54.295 C65.141,54.295 65.851,53.587 65.851,53.587 C65.851,53.587 63.721,51.463 63.721,51.463 C63.721,51.463 63.011,52.171 63.011,52.171 C63.011,52.171 65.141,54.295 65.141,54.295 ZM61.591,50.755 C61.591,50.755 62.301,50.047 62.301,50.047 C62.301,50.047 60.171,47.924 60.171,47.924 C60.171,47.924 59.461,48.632 59.461,48.632 C59.461,48.632 61.591,50.755 61.591,50.755 ZM58.040,47.216 C58.040,47.216 58.751,46.508 58.751,46.508 C58.751,46.508 56.620,44.384 56.620,44.384 C56.620,44.384 55.910,45.092 55.910,45.092 C55.910,45.092 58.040,47.216 58.040,47.216 ZM70.822,23.145 C70.822,23.145 70.112,23.853 70.112,23.853 C70.112,23.853 70.112,23.853 70.112,23.853 C70.112,23.853 70.112,23.853 70.112,23.853 C70.112,23.853 70.821,24.561 70.821,24.561 C70.821,24.561 68.691,26.685 68.691,26.685 C68.691,26.685 67.981,25.977 67.981,25.977 C67.981,25.977 68.524,26.519 68.524,26.519 C68.524,26.519 67.981,25.977 67.981,25.977 C67.981,25.977 55.200,38.720 55.200,38.720 C55.200,38.720 55.910,39.428 55.910,39.428 C55.910,39.428 53.780,41.552 53.780,41.552 C53.780,41.552 53.070,40.844 53.070,40.844 C53.070,40.844 52.360,41.552 52.360,41.552 C52.360,41.552 52.360,41.552 52.360,41.552 C52.360,41.552 52.360,41.552 52.360,41.552 C52.360,41.552 53.070,42.260 53.070,42.260 C53.070,42.260 51.650,43.676 51.650,43.676 C51.650,43.676 17.444,9.572 17.444,9.572 C17.444,9.572 20.526,9.575 20.526,9.575 C20.526,9.575 20.407,9.694 20.407,9.694 C20.407,9.694 22.537,11.818 22.537,11.818 C22.537,11.818 23.247,11.110 23.247,11.110 C23.247,11.110 21.709,9.576 21.709,9.576 C21.709,9.576 25.622,9.580 25.622,9.580 C25.622,9.580 31.058,14.650 31.058,14.650 C31.058,14.650 36.378,9.591 36.378,9.591 C36.378,9.591 39.368,9.594 39.368,9.594 C39.368,9.594 32.478,16.066 32.478,16.066 C32.478,16.066 42.419,25.977 42.419,25.977 C42.419,25.977 55.200,13.234 55.200,13.234 C55.200,13.234 51.602,9.606 51.602,9.606 C51.602,9.606 55.994,9.611 55.994,9.611 C55.994,9.611 55.910,9.694 55.910,9.694 C55.910,9.694 58.040,11.818 58.040,11.818 C58.040,11.818 58.751,11.110 58.751,11.110 C58.751,11.110 57.248,9.612 57.248,9.612 C57.248,9.612 60.091,9.615 60.091,9.615 C60.091,9.615 72.952,22.437 72.952,22.437 C72.952,22.437 71.532,23.853 71.532,23.853 C71.532,23.853 70.822,23.145 70.822,23.145 ZM24.667,12.526 C24.667,12.526 23.957,13.234 23.957,13.234 C23.957,13.234 26.087,15.358 26.087,15.358 C26.087,15.358 26.798,14.650 26.798,14.650 C26.798,14.650 24.667,12.526 24.667,12.526 ZM28.218,16.066 C28.218,16.066 27.508,16.774 27.508,16.774 C27.508,16.774 29.638,18.898 29.638,18.898 C29.638,18.898 30.348,18.190 30.348,18.190 C30.348,18.190 28.218,16.066 28.218,16.066 ZM50.940,40.136 C50.940,40.136 51.650,39.428 51.650,39.428 C51.650,39.428 49.520,37.305 49.520,37.305 C49.520,37.305 48.810,38.012 48.810,38.012 C48.810,38.012 50.940,40.136 50.940,40.136 ZM47.389,36.597 C47.389,36.597 48.100,35.889 48.100,35.889 C48.100,35.889 45.969,33.765 45.969,33.765 C45.969,33.765 45.259,34.473 45.259,34.473 C45.259,34.473 47.389,36.597 47.389,36.597 ZM31.768,19.606 C31.768,19.606 31.058,20.314 31.058,20.314 C31.058,20.314 33.188,22.438 33.188,22.438 C33.188,22.438 33.898,21.730 33.898,21.730 C33.898,21.730 31.768,19.606 31.768,19.606 ZM35.318,23.145 C35.318,23.145 34.608,23.853 34.608,23.853 C34.608,23.853 36.738,25.977 36.738,25.977 C36.738,25.977 37.449,25.269 37.449,25.269 C37.449,25.269 35.318,23.145 35.318,23.145 ZM38.869,26.685 C38.869,26.685 38.159,27.393 38.159,27.393 C38.159,27.393 40.289,29.517 40.289,29.517 C40.289,29.517 40.999,28.809 40.999,28.809 C40.999,28.809 38.869,26.685 38.869,26.685 ZM41.709,30.933 C41.709,30.933 43.839,33.057 43.839,33.057 C43.839,33.057 44.549,32.349 44.549,32.349 C44.549,32.349 42.419,30.225 42.419,30.225 C42.419,30.225 41.709,30.933 41.709,30.933 ZM56.620,14.650 C56.620,14.650 43.839,27.393 43.839,27.393 C43.839,27.393 53.780,37.304 53.780,37.304 C53.780,37.304 66.561,24.561 66.561,24.561 C66.561,24.561 56.620,14.650 56.620,14.650 ZM60.171,12.526 C60.171,12.526 59.461,13.234 59.461,13.234 C59.461,13.234 61.591,15.358 61.591,15.358 C61.591,15.358 62.301,14.650 62.301,14.650 C62.301,14.650 60.171,12.526 60.171,12.526 ZM63.721,16.066 C63.721,16.066 63.011,16.774 63.011,16.774 C63.011,16.774 65.141,18.898 65.141,18.898 C65.141,18.898 65.851,18.190 65.851,18.190 C65.851,18.190 63.721,16.066 63.721,16.066 ZM67.271,19.606 C67.271,19.606 66.561,20.314 66.561,20.314 C66.561,20.314 68.691,22.438 68.691,22.438 C68.691,22.438 69.402,21.730 69.402,21.730 C69.402,21.730 67.271,19.606 67.271,19.606 Z" id="path-1" class="cls-2" fill-rule="evenodd"/>
</svg>
