<svg xmlns="http://www.w3.org/2000/svg" xmlns:xlink="http://www.w3.org/1999/xlink" preserveAspectRatio="xMidYMid" width="100" height="95" viewBox="0 0 100 95">
  <defs>
    <style>

      .cls-2 {
        fill: #1e1e1e;
      }
    </style>
  </defs>
  <path d="M-0.000,94.994 C-0.000,94.994 -0.000,-0.000 -0.000,-0.000 C-0.000,-0.000 100.006,-0.000 100.006,-0.000 C100.006,-0.000 100.006,94.994 100.006,94.994 C100.006,94.994 -0.000,94.994 -0.000,94.994 ZM93.000,7.000 C93.000,7.000 7.000,7.000 7.000,7.000 C7.000,7.000 7.000,88.000 7.000,88.000 C7.000,88.000 93.000,88.000 93.000,88.000 C93.000,88.000 93.000,7.000 93.000,7.000 ZM42.599,40.724 C42.599,40.724 65.101,18.223 65.101,18.223 C65.101,18.223 78.972,23.849 78.972,23.849 C78.972,23.849 78.972,69.789 78.972,69.789 C78.972,69.789 64.793,75.414 64.793,75.414 C64.793,75.414 42.599,52.600 42.599,52.600 C42.599,52.600 28.112,63.851 28.112,63.851 C28.112,63.851 22.563,61.038 22.563,61.038 C22.563,61.038 22.563,32.286 22.563,32.286 C22.563,32.286 28.112,29.474 28.112,29.474 C28.112,29.474 42.599,40.724 42.599,40.724 ZM64.793,58.225 C64.793,58.225 64.793,35.099 64.793,35.099 C64.793,35.099 49.997,46.662 49.997,46.662 C49.997,46.662 64.793,58.225 64.793,58.225 ZM28.112,55.100 C28.112,55.100 36.743,46.662 36.743,46.662 C36.743,46.662 28.112,38.224 28.112,38.224 C28.112,38.224 28.112,55.100 28.112,55.100 Z" id="path-1" class="cls-2" fill-rule="evenodd"/>
</svg>
