<svg xmlns="http://www.w3.org/2000/svg" xmlns:xlink="http://www.w3.org/1999/xlink" preserveAspectRatio="xMidYMid" width="100" height="95" viewBox="0 0 100 95">
  <defs>
    <style>

      .cls-2 {
        fill: #1e1e1e;
      }
    </style>
  </defs>
  <path d="M100.000,95.000 C100.000,95.000 -0.000,95.000 -0.000,95.000 C-0.000,95.000 -0.001,-0.008 -0.001,-0.008 C-0.001,-0.008 100.000,-0.008 100.000,-0.008 C100.000,-0.008 100.000,95.000 100.000,95.000 ZM94.000,6.000 C94.000,6.000 6.000,6.000 6.000,6.000 C6.000,6.000 6.000,89.000 6.000,89.000 C6.000,89.000 94.000,89.000 94.000,89.000 C94.000,89.000 94.000,6.000 94.000,6.000 ZM89.000,60.000 C89.000,60.000 53.000,60.000 53.000,60.000 C53.000,60.000 53.000,73.000 53.000,73.000 C53.000,73.000 72.000,73.000 72.000,73.000 C72.000,73.000 74.000,75.000 74.000,75.000 C74.000,75.000 72.000,81.000 72.000,81.000 C72.000,81.000 70.000,83.000 70.000,83.000 C70.000,83.000 30.000,83.000 30.000,83.000 C30.000,83.000 28.000,81.000 28.000,81.000 C28.000,81.000 26.000,75.000 26.000,75.000 C26.000,75.000 28.000,73.000 28.000,73.000 C28.000,73.000 47.000,73.000 47.000,73.000 C47.000,73.000 47.000,60.000 47.000,60.000 C47.000,60.000 11.000,60.000 11.000,60.000 C11.000,60.000 11.000,14.000 11.000,14.000 C11.000,14.000 89.000,14.000 89.000,14.000 C89.000,14.000 89.000,60.000 89.000,60.000 ZM86.000,17.000 C86.000,17.000 14.000,17.000 14.000,17.000 C14.000,17.000 14.000,57.000 14.000,57.000 C14.000,57.000 86.000,57.000 86.000,57.000 C86.000,57.000 86.000,17.000 86.000,17.000 Z" id="path-1" class="cls-2" fill-rule="evenodd"/>
</svg>
