<svg xmlns="http://www.w3.org/2000/svg" xmlns:xlink="http://www.w3.org/1999/xlink" preserveAspectRatio="xMidYMid" width="5534" height="1023" viewBox="0 0 5534 1023">
  <defs>
    <style>

      .cls-2 {
        fill: #000000;
      }
    </style>
  </defs>
  <path d="M5349.999,845.000 C5459.760,845.000 5484.575,818.835 5533.999,766.000 C5533.999,782.455 5533.999,921.000 5533.999,921.000 C5533.999,921.000 5489.999,888.000 5489.999,888.000 C5489.999,888.000 5445.668,921.000 5349.999,921.000 C5254.329,921.000 5165.999,843.131 5165.999,672.000 C5165.999,500.869 5234.150,413.000 5349.999,413.000 C5465.848,413.000 5533.999,504.499 5533.999,691.000 C5525.030,691.000 5250.999,691.000 5250.999,691.000 C5250.999,691.000 5249.098,845.000 5349.999,845.000 ZM5250.999,615.000 C5250.999,615.000 5449.999,615.000 5449.999,615.000 C5449.999,615.000 5450.153,489.000 5349.999,489.000 C5249.845,489.000 5250.999,615.000 5250.999,615.000 ZM5066.999,490.000 C5018.055,490.000 4969.999,587.622 4969.999,654.000 C4969.999,722.886 4969.999,926.000 4969.999,926.000 C4969.999,926.000 4883.999,1028.000 4883.999,1028.000 C4883.999,1028.000 4883.999,461.000 4883.999,461.000 C4883.999,461.000 4846.999,418.000 4846.999,418.000 C4846.999,418.000 4969.999,418.000 4969.999,418.000 C4969.999,418.000 4969.999,460.000 4969.999,460.000 C4969.999,460.000 5000.528,414.000 5068.999,414.000 C5133.885,414.000 5150.999,460.000 5150.999,460.000 C5150.999,460.000 5150.999,544.000 5150.999,544.000 C5150.999,544.000 5115.762,490.000 5066.999,490.000 ZM4703.394,241.500 C4703.394,241.500 4763.499,181.396 4763.499,181.396 C4763.499,181.396 4823.603,241.500 4823.603,241.500 C4823.603,241.500 4763.499,301.604 4763.499,301.604 C4763.499,301.604 4703.394,241.500 4703.394,241.500 ZM4491.000,921.000 C4389.380,921.000 4307.000,807.280 4307.000,667.000 C4307.000,526.720 4389.380,413.000 4491.000,413.000 C4592.620,413.000 4675.000,526.720 4675.000,667.000 C4675.000,807.280 4592.620,921.000 4491.000,921.000 ZM4490.000,492.000 C4435.876,492.000 4392.000,571.022 4392.000,668.500 C4392.000,765.978 4435.876,845.000 4490.000,845.000 C4544.124,845.000 4588.000,765.978 4588.000,668.500 C4588.000,571.022 4544.124,492.000 4490.000,492.000 ZM4180.999,551.000 C4180.999,551.000 4066.999,776.000 4066.999,776.000 C4066.999,776.000 3952.999,552.000 3952.999,552.000 C3952.999,552.000 3952.999,921.000 3952.999,921.000 C3952.999,921.000 3866.999,1023.000 3866.999,1023.000 C3866.999,1023.000 3866.999,456.000 3866.999,456.000 C3866.999,456.000 3829.999,413.000 3829.999,413.000 C3829.999,413.000 3952.999,413.000 3952.999,413.000 C3952.999,413.000 4066.999,645.000 4066.999,645.000 C4066.999,645.000 4181.999,413.000 4181.999,413.000 C4181.999,413.000 4265.999,413.000 4265.999,413.000 C4265.999,413.000 4265.999,921.000 4265.999,921.000 C4265.999,921.000 4180.999,1023.000 4180.999,1023.000 C4180.999,1023.000 4180.999,551.000 4180.999,551.000 ZM3689.394,236.500 C3689.394,236.500 3749.499,176.396 3749.499,176.396 C3749.499,176.396 3809.603,236.500 3809.603,236.500 C3809.603,236.500 3749.499,296.604 3749.499,296.604 C3749.499,296.604 3689.394,236.500 3689.394,236.500 ZM3572.999,485.000 C3524.056,485.000 3475.999,582.622 3475.999,649.000 C3475.999,717.886 3475.999,921.000 3475.999,921.000 C3475.999,921.000 3389.998,1023.000 3389.998,1023.000 C3389.998,1023.000 3389.998,456.000 3389.998,456.000 C3389.998,456.000 3352.998,413.000 3352.998,413.000 C3352.998,413.000 3475.999,413.000 3475.999,413.000 C3475.999,413.000 3475.999,455.000 3475.999,455.000 C3475.999,455.000 3506.527,409.000 3574.999,409.000 C3639.885,409.000 3656.999,455.000 3656.999,455.000 C3656.999,455.000 3656.999,539.000 3656.999,539.000 C3656.999,539.000 3621.763,485.000 3572.999,485.000 ZM3069.999,920.000 C2959.122,920.000 2649.999,874.613 2649.999,479.000 C2649.999,86.868 2941.791,-0.000 3069.999,-0.000 C3151.946,-0.000 3243.223,38.892 3274.999,55.000 C3298.831,33.156 3332.999,-0.000 3332.999,-0.000 C3332.999,-0.000 3332.999,201.000 3332.999,201.000 C3332.999,201.000 3210.814,76.000 3069.999,76.000 C2907.966,76.000 2738.000,235.558 2738.000,478.000 C2738.000,717.369 2880.673,844.000 3069.999,844.000 C3156.886,844.000 3247.999,807.000 3247.999,807.000 C3247.999,807.000 3247.999,644.000 3247.999,644.000 C3247.999,644.000 3035.999,644.000 3035.999,644.000 C3035.999,644.000 2962.999,568.000 2962.999,568.000 C2962.999,568.000 3332.999,568.000 3332.999,568.000 C3332.999,568.000 3332.999,920.000 3332.999,920.000 C3332.999,920.000 3288.999,888.000 3288.999,888.000 C3288.999,888.000 3180.876,920.000 3069.999,920.000 ZM2325.999,55.000 C2325.999,55.000 2410.999,55.000 2410.999,55.000 C2410.999,55.000 2410.999,921.000 2410.999,921.000 C2410.999,921.000 2325.999,1023.000 2325.999,1023.000 C2325.999,1023.000 2325.999,55.000 2325.999,55.000 ZM2182.999,899.000 C2182.999,899.000 2162.599,921.000 2070.999,921.000 C1939.007,921.000 1909.999,743.477 1909.999,653.000 C1909.999,506.391 1996.190,413.000 2091.999,413.000 C2170.780,413.000 2182.999,445.000 2182.999,445.000 C2182.999,445.000 2182.999,413.000 2182.999,413.000 C2182.999,413.000 2267.999,413.000 2267.999,413.000 C2267.999,413.000 2267.999,921.000 2267.999,921.000 C2267.999,921.000 2182.999,1023.000 2182.999,1023.000 C2182.999,1023.000 2182.999,899.000 2182.999,899.000 ZM2182.999,573.000 C2182.999,523.861 2159.844,489.000 2094.999,489.000 C2030.154,489.000 1995.999,529.046 1995.999,656.000 C1995.999,786.452 2039.251,845.000 2094.999,845.000 C2145.615,845.000 2182.999,814.477 2182.999,779.000 C2182.999,741.424 2182.999,622.138 2182.999,573.000 ZM1856.999,252.000 C1856.999,252.000 1856.999,921.000 1856.999,921.000 C1856.999,921.000 1771.999,1023.000 1771.999,1023.000 C1771.999,1023.000 1771.999,252.000 1771.999,252.000 C1771.999,252.000 1528.999,252.000 1528.999,252.000 C1528.999,252.000 1454.999,176.000 1454.999,176.000 C1454.999,176.000 1771.999,176.000 1771.999,176.000 C1771.999,176.000 1771.999,55.000 1771.999,55.000 C1771.999,55.000 1856.999,55.000 1856.999,55.000 C1856.999,55.000 1856.999,176.000 1856.999,176.000 C1856.999,176.000 2051.999,176.000 2051.999,176.000 C2051.999,176.000 1968.999,252.000 1968.999,252.000 C1968.999,252.000 1856.999,252.000 1856.999,252.000 ZM993.999,1023.000 C993.999,1023.000 1158.999,719.000 1158.999,719.000 C1158.999,719.000 1046.999,456.000 1046.999,456.000 C1046.999,456.000 1009.999,413.000 1009.999,413.000 C1009.999,413.000 1114.999,413.000 1114.999,413.000 C1114.999,413.000 1209.999,645.000 1209.999,645.000 C1209.999,645.000 1328.998,456.000 1328.998,456.000 C1328.998,456.000 1291.999,413.000 1291.999,413.000 C1291.999,413.000 1432.999,413.000 1432.999,413.000 C1432.999,413.000 1135.999,921.000 1135.999,921.000 C1135.999,921.000 993.999,1023.000 993.999,1023.000 ZM914.999,485.000 C866.055,485.000 817.999,582.622 817.999,649.000 C817.999,717.886 817.999,921.000 817.999,921.000 C817.999,921.000 731.999,1023.000 731.999,1023.000 C731.999,1023.000 731.999,456.000 731.999,456.000 C731.999,456.000 694.998,413.000 694.998,413.000 C694.998,413.000 817.999,413.000 817.999,413.000 C817.999,413.000 817.999,455.000 817.999,455.000 C817.999,455.000 848.527,409.000 916.999,409.000 C981.885,409.000 998.998,455.000 998.998,455.000 C998.998,455.000 998.998,539.000 998.998,539.000 C998.998,539.000 963.762,485.000 914.999,485.000 ZM419.999,920.000 C309.121,920.000 -0.001,874.613 -0.001,479.000 C-0.001,86.868 291.791,-0.000 419.999,-0.000 C501.946,-0.000 593.223,38.892 624.999,55.000 C648.831,33.156 682.999,-0.000 682.999,-0.000 C682.999,-0.000 682.999,201.000 682.999,201.000 C682.999,201.000 560.814,76.000 419.999,76.000 C257.966,76.000 87.999,236.558 87.999,479.000 C87.999,718.369 230.673,844.000 419.999,844.000 C609.325,844.000 682.999,775.000 682.999,775.000 C682.999,775.000 682.999,920.000 682.999,920.000 C682.999,920.000 638.998,888.000 638.998,888.000 C638.998,888.000 530.875,920.000 419.999,920.000 ZM1572.999,413.000 C1652.734,413.000 1711.999,466.000 1711.999,466.000 C1711.999,466.000 1711.999,602.000 1711.999,602.000 C1711.999,602.000 1644.415,477.000 1572.999,477.000 C1541.887,477.000 1507.999,495.874 1507.999,539.000 C1507.999,618.181 1727.999,684.367 1727.999,789.000 C1727.999,893.632 1615.060,921.000 1578.999,921.000 C1542.937,921.000 1494.999,900.000 1494.999,900.000 C1494.999,900.000 1422.999,1023.000 1422.999,1023.000 C1422.999,1023.000 1422.999,766.000 1422.999,766.000 C1422.999,766.000 1520.310,850.000 1578.999,850.000 C1618.949,850.000 1642.999,820.460 1642.999,789.000 C1642.999,694.618 1422.999,646.814 1422.999,539.000 C1422.999,434.367 1529.325,413.000 1572.999,413.000 ZM3791.999,921.000 C3791.999,921.000 3706.999,1023.000 3706.999,1023.000 C3706.999,1023.000 3706.999,413.000 3706.999,413.000 C3706.999,413.000 3791.999,413.000 3791.999,413.000 C3791.999,413.000 3791.999,921.000 3791.999,921.000 ZM4805.999,926.000 C4805.999,926.000 4720.999,1028.000 4720.999,1028.000 C4720.999,1028.000 4720.999,418.000 4720.999,418.000 C4720.999,418.000 4805.999,418.000 4805.999,418.000 C4805.999,418.000 4805.999,926.000 4805.999,926.000 Z" id="path-1" class="cls-2" fill-rule="evenodd"/>
</svg>
