<svg xmlns="http://www.w3.org/2000/svg" width="3299" height="808" viewBox="0 0 3299 808">
  <title>Crystal Grimoire Typography</title>
<metadata><?xpacket begin="﻿" id="W5M0MpCehiHzreSzNTczkc9d"?>
<x:xmpmeta xmlns:x="adobe:ns:meta/" x:xmptk="Adobe XMP Core 5.6-c142 79.160924, 2017/07/13-01:06:39        ">
   <rdf:RDF xmlns:rdf="http://www.w3.org/1999/02/22-rdf-syntax-ns#">
      <rdf:Description rdf:about=""
            xmlns:dc="http://purl.org/dc/elements/1.1/"
            xmlns:photoshop="http://ns.adobe.com/photoshop/1.0/"
            xmlns:xmp="http://ns.adobe.com/xap/1.0/"
            xmlns:xmpRights="http://ns.adobe.com/xap/1.0/rights/">
         <dc:creator>
            <rdf:Seq>
               <rdf:li>Michael Phillip Stanich</rdf:li>
            </rdf:Seq>
         </dc:creator>
         <dc:title>
            <rdf:Alt>
               <rdf:li xml:lang="x-default">Crystal Grimoire Typography</rdf:li>
            </rdf:Alt>
         </dc:title>
         <photoshop:AuthorsPosition>Designer</photoshop:AuthorsPosition>
         <xmp:CreatorTool>Adobe Photoshop CC 2018 (Windows)</xmp:CreatorTool>
         <xmpRights:Marked>True</xmpRights:Marked>
      </rdf:Description>
   </rdf:RDF>
</x:xmpmeta>
                                                                                                    
                                                                                                    
                                                                                                    
                                                                                                    
                                                                                                    
                                                                                                    
                                                                                                    
                                                                                                    
                                                                                                    
                                                                                                    
                                                                                                    
                                                                                                    
                                                                                                    
                                                                                                    
                                                                                                    
                                                                                                    
                                                                                                    
                                                                                                    
                                                                                                    
                                                                                                    
                           
<?xpacket end="w"?></metadata>
<defs>
    <style>
      .cls-1 {
        fill-rule: evenodd;
      }
    </style>
  </defs>
  <path id="Crystal_Grimoire" data-name="Crystal Grimoire" class="cls-1" d="M1881.48,609.4h-28.92v53.626h-54.19V609.4h-29.01V746.226h29.01V687.172h54.19v59.054h28.92V609.4Zm90.03,56.293q5.34,5.755,5.52,16.331h-40.05q0.75-10.575,5.89-16.331t14.23-5.756Q1966.175,659.938,1971.51,665.694Zm10.39,80.579a67.1,67.1,0,0,0,16-5.569V718.617a89.417,89.417,0,0,1-17.59,6.271,78.575,78.575,0,0,1-17.88,1.965q-12.165,0-18.9-6.832t-7.21-19h67.48V687.172q0-22.272-12.36-34.908t-34.53-12.634q-23.205,0-36.36,14.365t-13.15,40.664q0,25.549,14.23,39.494t39.49,13.944A101.029,101.029,0,0,0,1981.9,746.273Zm131.49-.047V676.5q0-18.717-11.23-27.889t-32.29-9.171a85.046,85.046,0,0,0-40.05,9.452l9.45,19.279q16.935-7.581,29.48-7.581,16.275,0,16.28,15.91v4.586l-18.15.561q-23.505.843-35.15,8.751t-11.65,24.567q0,15.911,8.66,24.519t23.72,8.61q12.27,0,19.89-3.509T2087.18,732h0.75l5.52,14.226h19.94Zm-28.36-39.869q0,9.455-5.94,15.162t-15.86,5.708q-13.86,0-13.86-12.072,0-8.424,6.09-12.541t18.53-4.492l11.04-.375v8.61Zm98.13-61.346a39.331,39.331,0,0,0-13.15,14.179h-1.4l-4.22-17.6h-21.62V746.226h28.55V692.974q0-12.633,7.63-19.653t21.29-7.019a32.76,32.76,0,0,1,8.42.936l2.15-26.766a46.01,46.01,0,0,0-9.64-.842A32.4,32.4,0,0,0,2183.16,645.011Zm81.7,77.443q-3.42-2.9-3.42-8.984V663.027h29.3V641.6h-29.3V619.321h-18.25l-8.23,22.087-15.72,9.546v12.073h13.66V713.47q0,17.314,7.81,25.971t24.94,8.656q15.54,0,26.21-4.773V722.08q-10.485,3.277-17.97,3.276A13.482,13.482,0,0,1,2264.86,722.454Zm125.73-52.081q5.055-7.721,16.48-7.721,11.5,0,16.56,7.768t5.05,23.3q0,15.63-5,23.537t-16.43,7.909q-11.505,0-16.61-7.956t-5.1-23.49Q2385.54,678.094,2390.59,670.373Zm61.12-5.381a43.772,43.772,0,0,0-17.69-18.811q-11.52-6.551-26.58-6.551-24.24,0-37.62,14.225-13.4,14.226-13.39,39.868,0,16.473,6.18,28.825A43.939,43.939,0,0,0,2380.3,741.5q11.5,6.6,26.58,6.6,24.045,0,37.53-14.412t13.47-39.962Q2457.88,677.253,2451.71,664.992Zm87.59-23.4h-24.7v-6.551a14.9,14.9,0,0,1,2.71-9.218q2.715-3.6,8.8-3.6a53.254,53.254,0,0,1,15.91,2.715l7.3-20.964a73.347,73.347,0,0,0-26.3-4.4q-19.38,0-28.17,8.236t-8.8,26.111V641.6l-15.72,7.674v13.758h15.72v83.2h28.55v-83.2h24.7V641.6Zm147.22,80.672h-49.79V686.985h46.32V663.214h-46.32V633.172h49.79V609.4h-78.8V746.226h78.8V722.267Zm61.34,0.187q-3.42-2.9-3.41-8.984V663.027h29.29V641.6h-29.29V619.321H2726.2l-8.24,22.087-15.72,9.546v12.073h13.66V713.47q0,17.314,7.82,25.971t24.94,8.656q15.525,0,26.2-4.773V722.08q-10.485,3.277-17.97,3.276A13.482,13.482,0,0,1,2747.86,722.454Zm105.9-56.76q5.325,5.755,5.52,16.331h-40.06q0.75-10.575,5.9-16.331t14.22-5.756Q2848.43,659.938,2853.76,665.694Zm10.39,80.579a67.1,67.1,0,0,0,16-5.569V718.617a89.5,89.5,0,0,1-17.6,6.271,78.423,78.423,0,0,1-17.87,1.965q-12.165,0-18.91-6.832t-7.2-19h67.47V687.172q0-22.272-12.35-34.908t-34.53-12.634q-23.22,0-36.36,14.365-13.155,14.367-13.15,40.664,0,25.549,14.22,39.494,14.235,13.946,39.5,13.944A101.029,101.029,0,0,0,2864.15,746.273Zm85.49-101.262a39.331,39.331,0,0,0-13.15,14.179h-1.41l-4.21-17.6h-21.62V746.226h28.55V692.974q0-12.633,7.63-19.653t21.29-7.019a32.76,32.76,0,0,1,8.42.936l2.15-26.766a46.01,46.01,0,0,0-9.64-.842A32.4,32.4,0,0,0,2949.64,645.011ZM3092.87,678q0-18.621-9.45-28.5t-27.7-9.873a44.829,44.829,0,0,0-19.05,3.884,30.23,30.23,0,0,0-13.15,11.464h-1.59L3018.1,641.6h-21.81V746.226h28.54V697q0-18.531,5.34-26.532t17.31-8q8.8,0,12.82,5.662,4.035,5.664,4.03,16.986v61.113h28.54V678Zm43.71-49.414q7.77,0,11.65-3.7t3.88-10.342q0-13.944-15.53-13.944t-15.54,13.944q0,14.039,15.54,14.038h0ZM3150.8,641.6h-28.54V746.226h28.54V641.6Zm65,80.859q-3.42-2.9-3.42-8.984V663.027h29.3V641.6h-29.3V619.321h-18.25l-8.23,22.087-15.72,9.546v12.073h13.66V713.47q0,17.314,7.81,25.971t24.94,8.656q15.54,0,26.21-4.773V722.08q-10.485,3.277-17.97,3.276A13.482,13.482,0,0,1,3215.8,722.454Zm74.73,23.023-1.69,5.147q-3.18,9.357-8.84,13.992A19.452,19.452,0,0,1,3267,769H1769l32,23H3270c10.04,0,18.86-2.443,26.38-7.872s13.3-13.6,17.36-24.52L3358.01,641.6H3327.4l-19.37,58.867a79.717,79.717,0,0,0-4.02,18.155h-0.57a81.166,81.166,0,0,0-3.46-18.155L3280.23,641.6h-31.25ZM1767,776l26,19-18,13ZM3041,533h318l-36,23H3022Zm-100,0h33l9,23h-62Zm-335,0h265l9,23H2586Zm-210,0h140l9,23H2376Zm-107,0h37l9,23h-66Zm-179,0h109l9,23H2090Zm-597,0h527l9,23H1493Zm-103,0h33l9,23h-62Zm-245,0h180l9,23H1145Zm-211,0h141l9,23H931Zm-241,0H881l9,23H675Zm-197,0h98l9,23H496ZM74,533H446l9,23H102Zm-2,5,22,19-28,3Zm3289,1-26,18,30,7ZM441,500l-24.473-17.873S357.2,501,297,501,69,474.813,69,260C69,47.077,228.39,0,298,0c61.325,0,78.089,10.313,113,28C439.872,0.127,440,0,440,0V109c-9.259-12.221-65.545-63-142-63-87.976,0-181,82.357-181,214,0,129.974,77.206,195,180,195,47.175,0,112.689-13,144-47v92ZM567.684,269.218C541.281,269.218,515,293.174,515,350V501l-46,55V248l-28-23h74v23s16.825-25,53.763-25A51.015,51.015,0,0,1,613,247.948V308C609.818,294.636,600.758,269.218,567.684,269.218ZM723,501l-86,55,96-161L646,248l-28-23h67l75,125,61-102-14-23h81ZM988,225c32.39,0,55.15,12.176,60,16,17.73-15.743,18-16,18-16v84c-4.11-6.43-35.36-38-78-38-22.592,0-39,11.959-39,38s33.483,39.234,39,41,79,13.23,79,86c0,38.927-23.37,84-82,84-11.583,0-32.124-4.937-35-7-45.133,42.248-46,43-46,43V441s49.648,33,81,33,36-24.73,36-38c0-34.106-29.69-38.676-33-40s-85-28.688-85-87C903,252.408,944.833,225,988,225Zm176-95V501l-46,55V130H944L911,97h207V30h46V97h138l-33,33H1164Zm159,95a96.917,96.917,0,0,1,44.92,11.128c0-2.25.08-11.128,0.08-11.128h46V501l-46,55V490a96.816,96.816,0,0,1-45,11c-62.96,0-114-61.785-114-138S1260.04,225,1323,225Zm0,46c17.22,0,33.02,8.729,45,23V432c-12,14.37-27.72,23-45,23-37.56,0-68-41.19-68-92S1285.44,271,1323,271Zm189,230-46,55V30h46V501Zm363,0c-60.2,0-228-26.187-228-241C1647,47.077,1806.39,0,1876,0c61.33,0,78.09,10.313,113,28,28.87-27.873,29-28,29-28V109c-8.11-11.574-65.54-63-142-63-87.98,0-181,82.357-181,214,0,129.974,77.21,195,180,195,47.17,0,98-17,98-17V354H1861l-44-46h202V500l-24.47-17.873S1935.2,501,1875,501Zm286.68-231.782c-26.4,0-52.68,23.956-52.68,80.782V501l-46,55V248l-28-23h74v23s16.82-25,53.76-25A51.011,51.011,0,0,1,2207,247.948V308S2194.76,269.218,2161.68,269.218ZM2233,130l32-33,32,33-32,32Zm55,371-46,55V225h46V501Zm189-60-82-136V501l-46,55V248l-28-23h81l75,125,75-125h53V501l-46,55V305Zm273-216c62.96,0,114,61.784,114,138s-51.04,138-114,138-114-61.785-114-138S2687.04,225,2750,225Zm0,46c37.56,0,68,41.19,68,92s-30.44,92-68,92-68-41.19-68-92S2712.44,271,2750,271Zm135-141,32-33,32,33-32,32Zm55,371-46,55V225h46V501Zm152.68-231.782c-26.4,0-52.68,23.956-52.68,80.782V501l-46,55V248l-28-23h74v23s16.82-25,53.76-25A51.011,51.011,0,0,1,3138,247.948V308S3125.76,269.218,3092.68,269.218ZM3268,225c37.2,0,70.19,21.623,91,55v93H3200c0.27,17.6,17.49,82,68,82,44.96,0,61.48-9.106,91-37v83s-1.14-1.026-18-16c-23.7,15.843-53.6,16-73,16-62.96,0-114-61.785-114-138S3205.04,225,3268,225Zm0,46c17.25,0,33.01,8.684,45,23v33s-90.71.027-107.61,0.027C3215.75,294.093,3239.88,271,3268,271Z" transform="translate(-66)"/>
</svg>
