<?xml version="1.0" encoding="utf-8"?>
<!-- Generator: Adobe Illustrator 22.0.1, SVG Export Plug-In . SVG Version: 6.00 Build 0)  -->
<svg version="1.1" id="Layer_1" xmlns="http://www.w3.org/2000/svg" xmlns:xlink="http://www.w3.org/1999/xlink" x="0px" y="0px"
	 viewBox="0 0 3454 4000" style="enable-background:new 0 0 3454 4000;" xml:space="preserve">
<style type="text/css">
	.st0{fill:#ED1978;}
	.st1{fill:#32C5F4;}
	.st2{fill:#3DB985;}
	.st3{fill:#F57E20;}
	.st4{fill:#1E1E1E;}
</style>
<path class="st0" d="M313,1633l47.2,561.8L530,2459l380-51L313,1633z"/>
<polygon class="st0" points="3367,1720 3223.8,2140.4 2706.9,2198.7 2664.3,1066.4 2454.7,1254.7 2566.8,953.1 2941.3,838.8 
	3367,1039.5 "/>
<path class="st1" d="M2740.6,2700.9l25.8,754.5l186.1-526.9L2740.6,2700.9z"/>
<polygon class="st1" points="1906,1764 1813,1855 1004,1178 1028,2558 292,1582 277,1360 1152,920 "/>
<polygon class="st1" points="3363.9,1010.3 2255.7,513.3 2491,214 3174,334 3367,529 "/>
<path class="st2" d="M2713.7,2197.5l16.8,494.4l222,243.3l274.7-799.3L2713.7,2197.5z"/>
<polygon class="st2" points="1032,3218 530,2459 915,2411 1021.9,2549.9 "/>
<polygon class="st2" points="2953.6,836.5 1474.9,1280.5 1152,920 1547.8,724.4 1866.1,892.7 2246.2,507 "/>
<path class="st3" d="M1474.9,1280.5L1906,1764l554.7-516.9l106.1-294L1474.9,1280.5z"/>
<polygon class="st3" points="3378.5,3842.2 2783.2,3447.5 3378.5,1687.4 "/>
<polygon class="st3" points="1039,3797 441,3404 458,2348 1039,3244 "/>
<polygon class="st3" points="282,1338 165,263 987,213 1542,726 "/>
<path class="st4" d="M3195,245.4l-759.2-137.5L1839,840.3l-797.8-732.4l-852,91.8L179,93.5L122.8-0.8L76.1,88.8l13.5,121.7
	l-42.5,4.6L0.5,261.4l61.1,32l37-2.8l275,2470.5l0,0l-2.1,564.7L282,3266l-103-4.8l22.5,102.3L371,3478.3l-0.5,145.9l33.8,94.3
	l56.3-75.1l0.9-103.8l679.5,460.3l1.6-2380.9l672.5,561.1l709.2-681l125.5,2107.5l67.6,111.9l69.2-102.3l-2.5-67.4l670,451.2V523.7
	L3195,245.4z M2496.9,235.9l667.5,111.9l185,188.7l0.5,454.7L2272.6,510.7L2496.9,235.9z M1745.7,937.8l-70.8,71.9l-1,67.4
	l-0.6,41.4l104.5-1.6l76.1-93.3l407.8-499.7l493.4,238.4l162,78.2l-196.6,57.3L2582.7,938l-1110.5,323.6l-88.7-98.1l-214.9-237.8
	L1534.1,739L1745.7,937.8z M375.8,2159.3l-46.4-486.7l47.9,61.5L375.8,2159.3z M377.7,1651.5l-57.9-80.2l-19.2-202l78.3-40
	L377.7,1651.5z M431.6,901.1l-51.5,83.1l-1,281.9l-84.6,39.8L197.1,283.1l787.8-60L1522.3,728L482.5,1217.4l2.2-242.8L431.6,901.1z
	 M525.5,2437.7l-53.3-78.3l4.5-497.9l416.4,534.3L525.5,2437.7z M918.3,2428.1l85.6,109.9l4,269.1l5.1,346.4l-281.7-413.6
	l-181.6-266.7L918.3,2428.1z M462.9,3386.8l9.1-1005.3l542.4,865.2l7.5,513.5L462.9,3386.8z M1808.5,1828.5l-825.2-694l16.3,1105.7
	l4.1,278.5l-526.4-729.1l4.6-512.8L1152,934.3l730.3,825.8L1808.5,1828.5z M2457.9,1226.4l-553.4,513.1l-405.8-449l1053.9-325.4
	L2457.9,1226.4L2457.9,1226.4z M2691.5,1009.8l-210.4,195l104.4-249.9l0,0l346.8-107.1l417.5,201.7l0.7,696.5l-134.7,384.4
	l-481.6,55L2691.5,1009.8z M2735.1,2205.6l474.9-58.2l-261.7,747l-196-216.8l0,0L2735.1,2205.6z M2777.9,3380.6l-23.1-634.1
	l175.7,198.6L2777.9,3380.6z M2820,3425.1l530.6-1642.5l2,2004.7L2820,3425.1z"/>
</svg>
