<svg xmlns="http://www.w3.org/2000/svg" xmlns:xlink="http://www.w3.org/1999/xlink" preserveAspectRatio="xMidYMid" width="2147" height="2502" viewBox="0 0 2147 2502">
  <defs>
    <style>

      .cls-2 {
        fill: #1e1e1e;
      }
    </style>
  </defs>
  <path d="M1730.474,2219.837 C1730.474,2219.837 1732.000,2262.000 1732.000,2262.000 C1732.000,2262.000 1689.000,2326.000 1689.000,2326.000 C1689.000,2326.000 1647.000,2256.000 1647.000,2256.000 C1647.000,2256.000 1641.284,2159.418 1641.284,2159.418 C1641.284,2159.418 1558.000,2103.000 1558.000,2103.000 C1558.000,2103.000 1546.000,2042.000 1546.000,2042.000 C1546.000,2042.000 1603.000,2040.000 1603.000,2040.000 C1603.000,2040.000 1635.534,2062.253 1635.534,2062.253 C1635.534,2062.253 1569.000,938.000 1569.000,938.000 C1569.000,938.000 1128.000,1364.000 1128.000,1364.000 C1128.000,1364.000 710.000,1013.000 710.000,1013.000 C710.000,1013.000 709.000,2502.000 709.000,2502.000 C709.000,2502.000 286.583,2214.120 286.583,2214.120 C286.583,2214.120 286.000,2279.000 286.000,2279.000 C286.000,2279.000 251.000,2326.000 251.000,2326.000 C251.000,2326.000 230.000,2267.000 230.000,2267.000 C230.000,2267.000 230.331,2175.784 230.331,2175.784 C230.331,2175.784 125.000,2104.000 125.000,2104.000 C125.000,2104.000 111.000,2040.000 111.000,2040.000 C111.000,2040.000 175.000,2043.000 175.000,2043.000 C175.000,2043.000 230.678,2080.401 230.678,2080.401 C230.678,2080.401 231.961,1727.292 231.961,1727.292 C231.961,1727.292 60.971,182.239 60.971,182.239 C60.971,182.239 38.000,184.000 38.000,184.000 C38.000,184.000 -0.000,164.000 -0.000,164.000 C-0.000,164.000 29.000,135.000 29.000,135.000 C29.000,135.000 55.426,132.135 55.426,132.135 C55.426,132.135 47.000,56.000 47.000,56.000 C47.000,56.000 76.000,-0.000 76.000,-0.000 C76.000,-0.000 111.000,59.000 111.000,59.000 C111.000,59.000 117.290,125.428 117.290,125.428 C117.290,125.428 647.000,68.000 647.000,68.000 C647.000,68.000 1143.000,526.000 1143.000,526.000 C1143.000,526.000 1514.000,68.000 1514.000,68.000 C1514.000,68.000 1986.000,154.000 1986.000,154.000 C1986.000,154.000 2147.000,328.000 2147.000,328.000 C2147.000,328.000 2147.000,2502.000 2147.000,2502.000 C2147.000,2502.000 1730.474,2219.837 1730.474,2219.837 ZM2082.000,336.000 C2082.000,336.000 1967.000,218.000 1967.000,218.000 C1967.000,218.000 1552.000,148.000 1552.000,148.000 C1552.000,148.000 1105.000,699.000 1105.000,699.000 C1105.000,699.000 1040.000,700.000 1040.000,700.000 C1040.000,700.000 1041.000,632.000 1041.000,632.000 C1041.000,632.000 1085.000,587.000 1085.000,587.000 C1085.000,587.000 612.000,140.000 612.000,140.000 C612.000,140.000 122.224,177.544 122.224,177.544 C122.224,177.544 233.329,1350.953 233.329,1350.953 C233.329,1350.953 236.000,616.000 236.000,616.000 C236.000,616.000 268.000,564.000 268.000,564.000 C268.000,564.000 301.000,610.000 301.000,610.000 C301.000,610.000 287.442,2118.532 287.442,2118.532 C287.442,2118.532 635.000,2352.000 635.000,2352.000 C635.000,2352.000 611.000,710.000 611.000,710.000 C611.000,710.000 1124.000,1144.000 1124.000,1144.000 C1124.000,1144.000 1673.000,632.000 1673.000,632.000 C1673.000,632.000 1727.035,2124.839 1727.035,2124.839 C1727.035,2124.839 2084.000,2369.000 2084.000,2369.000 C2084.000,2369.000 2082.000,336.000 2082.000,336.000 Z" id="path-1" class="cls-2" fill-rule="evenodd"/>
</svg>
