<?xml version="1.0" encoding="utf-8"?>
<!-- Generator: Adobe Illustrator 23.0.1, SVG Export Plug-In . SVG Version: 6.00 Build 0)  -->
<svg version="1.1" id="Layer_1" xmlns="http://www.w3.org/2000/svg" xmlns:xlink="http://www.w3.org/1999/xlink" x="0px" y="0px"
	 viewBox="0 0 328 435" style="enable-background:new 0 0 328 435;" xml:space="preserve">
<style type="text/css">
	.st0{fill-rule:evenodd;clip-rule:evenodd;fill:#1E1E1E;}
</style>
<path id="ハート" class="st0" d="M88.8,115.8c-1.3,1.3-2,1.6-5.8,1.9v-5.4c-0.1-0.6,0-1.2,0.3-1.8c0.3-0.4,0.4-0.9,0.5-1.4
	c0-2-4.2-4-7-4c-1.3,0-2.6,1-2.6,1.9l0,0c3.7,0,3.8,0.5,4,11c-2.9,0.3-8,0.9-12.3,1.3v-2.3c0-1,0.1-1.9,0.2-2.9
	c0.2-0.6,0.4-1.3,0.5-2c0-2.1-3.7-3.7-5.9-3.7c-1.2,0-2.3,0.5-3,1.6l0.1,0.3c3.3,0,3.6,1.4,3.7,3.6c0.1,1.4,0.2,3.5,0.3,5.9
	c-0.8,0.1-4.3,0.4-5.4,0.4c-2.3,0-3.9-0.5-4.7-2.8c-1,0.2-1.2,1.9-1.2,2c0,2.6,3,5.3,5.4,5.3c0.6,0,1.2-0.2,1.6-0.6
	c1.3-0.8,2.8-1.2,4.4-1.3c0,5.8,0,6.3-0.8,7.5c0.5,3.3,1.8,5.1,3.2,5.1c1.2-0.1,2.2-1.2,2.1-2.4c0-1.8-0.4-9.5-0.5-11.1
	c3.9-0.6,8.6-1.1,12.2-1.3v4.2c0,8.1-3.5,17.6-14.4,23.1l0.6,0.8c14.3-4.6,18.5-13.6,18.6-23.9v-4.4c2.1,0,4.2,0,6.4,0.2
	c1.3,0.2,2.5,0.3,3.4,0.3c1.3,0,2-0.3,2-1.3C94.8,117.8,92.3,116.6,88.8,115.8z M136.1,125.6c-1,1.1-2.3,1.7-4.5,2.1
	c-3,0.5-5.5,0.7-8.6,1.3c-0.4-3.5-0.8-7.4-1.1-10.5c3.2-0.7,6.4-1.1,9.6-1.2l1.5,0c2.1,0,3.3-0.5,3.3-1.6c0-1.8-3.5-2.7-6.4-3.1
	c-0.9,1.4-3.4,2-8.3,3.1c0-0.7-0.3-4.2-0.3-4.5c0-0.6,0.1-1.2,0.3-1.8c0.3-0.5,0.5-1,0.5-1.5c0-1.5-3.9-2.5-6.8-2.5
	c-1.5,0-2.9,0.9-3.4,2.3l0.1,0.2c0.4-0.1,0.8-0.2,1.2-0.2c1.7-0.1,3.1,1.2,3.3,2.8c0.2,1.2,0.7,3.8,0.9,5.8c-3.3,0.6-6.7,1-10.1,1.2
	c-2,0-3.2-0.4-4.3-2.1l-0.3,0c-0.2,0.5-0.3,1.1-0.3,1.7c0,2.4,2.9,4.6,5.4,4.6c0.9-0.1,1.8-0.4,2.5-0.9c2.4-0.7,4.9-1.3,7.4-1.7
	c0.3,2.3,1,7.8,1.1,10.4c-2.3,0.5-12.1,2.2-14.4,2.2c-1.8,0.2-3.6-0.6-4.7-2.1h-0.2c-0.4,0.5-0.6,1.1-0.5,1.8c0,2.6,3.6,5,5.4,5
	c0.8,0,1.6-0.3,2.2-0.8c2.7-1.4,9-2.6,12.5-3.2c0.2,1.8,0.5,5.5,0.5,7.6v0.8c0,1.1-0.1,2-0.3,3.1c0.2,2,1.7,4.7,3.5,4.7
	c1.5,0,2.4-2,2.4-3.6c0-0.8-0.7-4-0.8-4.8c-0.3-2.3-0.8-5.9-1-8.6c4-0.7,8.1-1,12.2-1.1c0.5,0,2.8,0.1,3.2,0.1
	c2.3,0,3.9-0.5,3.9-1.7C142.6,127.3,139.5,126.3,136.1,125.6z M175.2,140.3c-1.3,1.2-1.7,1.2-6,1.2c1-4.1,1.7-8.3,2.3-12.5
	c0.2-1.2,0.3-1.6,0.8-1.9c0.3-0.3,1.5-0.5,1.5-1.3c0-1-3.5-3.3-4.4-3.3c-0.6,0-1,0.6-1.8,1.3c-0.4,0.4-1,0.6-1.6,0.6
	c-3.7,0.4-8.2,0.7-9.8,0.7c-0.8,0-3.3,0-3.4-2.4c-1,0.2-1,1.5-1,1.9c0,1.5,2,4.4,3.8,4.4c0.5,0,0.9-0.1,1.3-0.4
	c0.7-0.4,1.4-0.7,2.1-0.9c2.8-0.6,5.5-1,8.3-1.3l0.2,0.2c-0.2,3.3-1,10.4-1.9,15.2c-4.4,0.3-10.6,0.7-13.3,0.8c-2,0-4.3,0-4.8-2.6
	c-0.9,0-1.2,1.6-1.2,2.1c0,1.9,2.1,4.7,4.4,4.7c0.6,0,1.3-0.6,2-0.9c0.8-0.4,1.7-0.6,2.6-0.8c4.3-0.6,8.6-0.9,13-0.9
	c1.7,0,3.1,0.1,4.1,0.2c3.1,0.3,4.2,1,5.7,1c1.1,0,2.2,0,2.2-1.2C180.2,142.5,178.4,141.3,175.2,140.3z M229.7,112.1
	c0-2.3-3.1-4.9-7.4-6.1l-0.5,0.6c2.1,1.4,3.7,3.5,4.5,6c0.4,1.2,1,1.5,1.7,1.5c1,0,1.8-0.9,1.8-1.9
	C229.7,112.2,229.7,112.2,229.7,112.1z M223.3,115c0-2.5-3.3-5-7.2-6.1l-0.5,0.8c2,1.5,3.5,3.5,4.3,5.8c0.2,0.9,0.9,1.5,1.8,1.5
	c1,0,1.8-0.9,1.7-1.8C223.3,115.2,223.3,115.1,223.3,115z M196.4,114.8c-1.2-0.1-2.3,0.6-2.9,1.7l0,0c2,0,3.6,1.1,3.6,2.8
	c0,2.2-3.7,14.2-12.1,22.8l0.7,0.8c7.8-4.6,13.6-12.8,16.7-20.4c0.8-2,1.7-1.7,1.7-2.9C204.2,117.8,199.8,114.8,196.4,114.8z
	 M213.2,116.2l-0.7,0.8c7,5.9,10.5,15.2,11.6,21.1c0.4,2,1.2,3.6,3.1,3.6c2.1,0,3.4-2,3.4-4.5C230.6,130.7,223.7,121.7,213.2,116.2z
	 M275.5,142.8c0-2-1.7-4.3-3.8-6.3c-2.8-2.6-8.2-5.8-12.8-7.8c3.2-4.2,6-8.7,8.3-13.5c0.3-0.6,0.7-1,1.3-1.3
	c0.9-0.3,1.5-0.6,1.5-1.3c0-1-4.3-4.3-5.5-4.3c-0.6,0-1,0.5-1.8,1.1c-0.4,0.5-1,0.7-1.6,0.8c-4.2,0.5-12.3,1-13.7,1
	c-1.4,0.1-2.8-0.1-4.1-0.5c-1.1-0.5-1.9-1.5-2-2.7c-0.9,0.5-1.5,1.4-1.4,2.4c0,2.5,3,5.6,5.1,5.6c0.6-0.1,1.2-0.3,1.7-0.8
	c0.6-0.5,1.4-0.8,2.2-0.8c4.1-0.9,8.3-1.5,12.5-1.9c0.4,0,0.5,0,0.5,0.3c0,0.1,0,0.2,0,0.3c-3.5,11.2-14.5,24.9-27.2,32.4l0.6,0.8
	c8.8-3.6,16.5-9.3,22.6-16.5c4.6,3,9.1,9.2,10.5,11.9c1.4,2.8,2.4,4.3,4,4.3c1.8,0,3.2-1.5,3.2-3.3
	C275.5,142.9,275.5,142.9,275.5,142.8z M108.4,168.3c-1.2-0.1-2.3,0.6-2.9,1.7l0,0c2,0,3.6,1.1,3.6,2.8c0,2.2-3.7,14.2-12.1,22.8
	l0.7,0.8c7.8-4.6,13.6-12.8,16.7-20.4c0.8-2,1.7-1.7,1.7-2.9C116.2,171.3,111.8,168.3,108.4,168.3z M125.2,169.7l-0.7,0.8
	c7,5.9,10.5,15.2,11.6,21.1c0.4,2,1.2,3.5,3.1,3.5c2.1,0,3.4-2,3.4-4.5C142.6,184.3,135.7,175.2,125.2,169.7z M184.8,178.2
	c-2,0.3-4,0.5-6,0.5h-22.1c-3.7,0-7.2-0.2-7.9-3.3l-0.3,0c-0.8,0.8-1.2,1.9-1,3c0,2.2,3.6,5.9,6,5.9c0.8-0.1,1.5-0.3,2.2-0.7
	c1.1-0.4,2.3-0.6,3.5-0.8c2.8-0.3,10-0.5,14.8-0.5c4.1,0,8.2,0,10.2,0c1.1,0,2.6,0,3.5,0c2.3,0,3.6-0.5,3.6-1.8
	C191.3,179,187.3,178.3,184.8,178.2z M223.3,179.5c-3-1.6-8.1-3-13.6-3.5c0.1-2.8,0.3-7.6,0.4-9.5c0-0.5,0.2-1,0.4-1.4
	c0.4-0.3,0.6-0.8,0.7-1.3c0-2.3-4-4.4-7.3-4.4c-1.7,0-3.5,1.1-3.7,2l0,0c4.1,0,4.4,2.6,4.6,5.5c0.1,2.1,0.2,5.4,0.2,8.8
	c0.1,5.8-0.1,11.6-0.7,17.4c-0.2,0.9-0.6,1.7-1.1,2.5c0.8,3.1,1.8,6.9,3.8,6.9c1.8,0,2.9-1.5,2.9-3.9c0-2.3-0.2-4.7-0.2-7.6
	c0-3-0.1-8.3,0-13.2c4.2,1.5,8,3.9,11,7.2c1,1.3,2.4,2,4,2.1c1.4,0,2.6-1.1,2.6-2.5C227.3,182.5,225.9,181,223.3,179.5z"/>
<path class="st0" d="M319.6,103.4c-6.4,9.2-12.6,17.4-17.9,25.1c8.4,24.1,5.5,39.1-12.2,61c-3.5,4.4-6.7,7.8-9.7,10.6
	c-2,28.1-16.9,66.9-69.1,110c-17.7,14.6-30.9,28.6-40.7,41.5c39.4,52.1,14.3,82.5,13.5,83.4c0.3-0.8,10.4-31-19.3-75.2
	c-29.7,44.1-19.6,74.4-19.3,75.2c-0.8-0.9-25.9-31.2,13.5-83.4c-9.8-12.9-23-26.9-40.8-41.5c-52.2-43-67.2-81.9-69.2-110
	c-3-2.8-6.2-6.2-9.7-10.6c-17.7-21.9-20.6-36.9-12.2-61c-5.3-7.7-11.5-15.9-17.9-25.1c-20.8-29.8,3-57.8,5.7-87.6
	c-1,27.6,9.7,46.8,10,47.4l-12.9-5.7c0,0-11.8,16,1.4,43.1c2.7,5.5,9.4,12.8,16.1,21.3c5.3-13.2,13.5-29.2,24-50.1
	C59,59.8,60,45.9,60,45.9s-7.9-2-21.5,7.2C49.6,34.1,54.7,29.2,57.2,0c3.6,23.9,23.7,34.6,4.3,74.7c-9.3,19.1-21.2,36.8-27.5,54.1
	c9.5,13.6,16.8,30,8.9,47.9c2.5-14-2.5-26.4-11.3-40.3c-4.4,16.4-2.5,32.5,12.8,48.9c1.3,1.4,2.6,2.8,3.8,4
	c1-20.9,8.7-33.6,9.1-34.1c-0.1,0.7-3.8,18-0.2,42.6c17.6,15.1,20.8,6.3,47.5,23.4c23.5,15.1,18.6,47.4,18.6,47.4s-0.6-29-21.5-41.6
	c-21-12.6-31.7-12.8-42.8-18.9c6.2,28.8,22.6,64.9,62.9,96.5c18.3,14.3,32.1,27.6,42.3,39.9c10.3-12.2,24-25.5,42.3-39.9
	c40.3-31.6,56.7-67.7,62.8-96.5c-11.1,6.1-21.8,6.3-42.8,18.9c-20.9,12.6-21.5,41.6-21.5,41.6s-4.9-32.3,18.6-47.4
	c26.6-17.1,29.9-8.3,47.5-23.4c3.6-24.6,0-41.9-0.2-42.6c0.4,0.5,8.1,13.3,9.1,34.2c1.2-1.3,2.5-2.6,3.8-4
	c15.3-16.5,17.1-32.5,12.7-48.9c-8.8,13.9-13.8,26.3-11.3,40.3c-7.9-17.9-0.6-34.2,8.9-47.9c-6.4-17.3-18.3-35-27.5-54
	c-19.4-40.1,0.7-50.8,4.3-74.7c2.5,29.2,7.6,34.1,18.6,53.1c-13.6-9.2-21.5-7.2-21.5-7.2s1.1,13.8,7.2,25.8
	c10.6,20.8,18.7,36.8,24,50c6.7-8.5,13.4-15.8,16.1-21.3c13.2-27.1,1.4-43.1,1.4-43.1l-12.9,5.7c0.3-0.6,11-19.7,10-47.4
	C316.6,45.5,340.3,73.6,319.6,103.4z"/>
</svg>
